<?xml version="1.0" encoding="UTF-8" standalone="no"?><svg xmlns="http://www.w3.org/2000/svg" xmlns:xlink="http://www.w3.org/1999/xlink" clip-rule="evenodd" stroke-miterlimit="10" viewBox="0 0 755 99"><desc>SVG generated by Keynote</desc><defs></defs><g transform="matrix(1.00, 0.00, -0.00, -1.00, 0.0, 99.0)"><text xml:space="preserve" font-family="Helvetica-Light,Helvetica" font-size="41.8" fill="#FEFFFF" transform="matrix(1.00, 0.00, -0.00, -1.00, 0.0, 65.8)">•</text><text xml:space="preserve" font-family="Helvetica-Light,Helvetica" font-size="44.0" fill="#FEFFFF" transform="matrix(1.00, 0.00, -0.00, -1.00, 42.0, 64.8)">T</text><text xml:space="preserve" font-family="Helvetica-Light,Helvetica" font-size="44.0" fill="#FEFFFF" transform="matrix(1.00, 0.00, -0.00, -1.00, 66.5, 64.8)">h</text><text xml:space="preserve" font-family="Helvetica-Light,Helvetica" font-size="44.0" fill="#FEFFFF" transform="matrix(1.00, 0.00, -0.00, -1.00, 90.9, 64.8)">e</text><text xml:space="preserve" font-family="Helvetica-Light,Helvetica" font-size="44.0" fill="#FEFFFF" transform="matrix(1.00, 0.00, -0.00, -1.00, 115.4, 64.8)"> </text><text xml:space="preserve" font-family="Helvetica-Light,Helvetica" font-size="44.0" fill="#FEFFFF" transform="matrix(1.00, 0.00, -0.00, -1.00, 127.6, 64.8)">c</text><text xml:space="preserve" font-family="Helvetica-Light,Helvetica" font-size="44.0" fill="#FEFFFF" transform="matrix(1.00, 0.00, -0.00, -1.00, 152.1, 64.8)">h</text><text xml:space="preserve" font-family="Helvetica-Light,Helvetica" font-size="44.0" fill="#FEFFFF" transform="matrix(1.00, 0.00, -0.00, -1.00, 176.6, 64.8)">e</text><text xml:space="preserve" font-family="Helvetica-Light,Helvetica" font-size="44.0" fill="#FEFFFF" transform="matrix(1.00, 0.00, -0.00, -1.00, 201.0, 64.8)">c</text><text xml:space="preserve" font-family="Helvetica-Light,Helvetica" font-size="44.0" fill="#FEFFFF" transform="matrix(1.00, 0.00, -0.00, -1.00, 225.5, 64.8)">k</text><text xml:space="preserve" font-family="Helvetica-Light,Helvetica" font-size="44.0" fill="#FEFFFF" transform="matrix(1.00, 0.00, -0.00, -1.00, 247.5, 64.8)">e</text><text xml:space="preserve" font-family="Helvetica-Light,Helvetica" font-size="44.0" fill="#FEFFFF" transform="matrix(1.00, 0.00, -0.00, -1.00, 271.9, 64.8)">d</text><text xml:space="preserve" font-family="Helvetica-Light,Helvetica" font-size="44.0" fill="#FEFFFF" transform="matrix(1.00, 0.00, -0.00, -1.00, 298.8, 64.8)"> </text><text xml:space="preserve" font-family="Helvetica-Light,Helvetica" font-size="44.0" fill="#FEFFFF" transform="matrix(1.00, 0.00, -0.00, -1.00, 311.1, 64.8)">o</text><text xml:space="preserve" font-family="Helvetica-Light,Helvetica" font-size="44.0" fill="#FEFFFF" transform="matrix(1.00, 0.00, -0.00, -1.00, 335.5, 64.8)">u</text><text xml:space="preserve" font-family="Helvetica-Light,Helvetica" font-size="44.0" fill="#FEFFFF" transform="matrix(1.00, 0.00, -0.00, -1.00, 360.0, 64.8)">t</text><text xml:space="preserve" font-family="Helvetica-Light,Helvetica" font-size="44.0" fill="#FEFFFF" transform="matrix(1.00, 0.00, -0.00, -1.00, 372.2, 64.8)"> </text><text xml:space="preserve" font-family="Helvetica-Light,Helvetica" font-size="44.0" fill="#FEFFFF" transform="matrix(1.00, 0.00, -0.00, -1.00, 384.5, 64.8)">b</text><text xml:space="preserve" font-family="Helvetica-Light,Helvetica" font-size="44.0" fill="#FEFFFF" transform="matrix(1.00, 0.00, -0.00, -1.00, 411.3, 64.8)">r</text><text xml:space="preserve" font-family="Helvetica-Light,Helvetica" font-size="44.0" fill="#FEFFFF" transform="matrix(1.00, 0.00, -0.00, -1.00, 426.0, 64.8)">a</text><text xml:space="preserve" font-family="Helvetica-Light,Helvetica" font-size="44.0" fill="#FEFFFF" transform="matrix(1.00, 0.00, -0.00, -1.00, 450.5, 64.8)">n</text><text xml:space="preserve" font-family="Helvetica-Light,Helvetica" font-size="44.0" fill="#FEFFFF" transform="matrix(1.00, 0.00, -0.00, -1.00, 474.9, 64.8)">c</text><text xml:space="preserve" font-family="Helvetica-Light,Helvetica" font-size="44.0" fill="#FEFFFF" transform="matrix(1.00, 0.00, -0.00, -1.00, 499.4, 64.8)">h</text><text xml:space="preserve" font-family="Helvetica-Light,Helvetica" font-size="44.0" fill="#FEFFFF" transform="matrix(1.00, 0.00, -0.00, -1.00, 523.8, 64.8)"> </text><text xml:space="preserve" font-family="Helvetica-Bold,Helvetica" font-weight="bold" font-size="44.0" fill="#FEFFFF" transform="matrix(1.00, 0.00, -0.00, -1.00, 536.1, 64.8)">r</text><text xml:space="preserve" font-family="Helvetica-Bold,Helvetica" font-weight="bold" font-size="44.0" fill="#FEFFFF" transform="matrix(1.00, 0.00, -0.00, -1.00, 553.2, 64.8)">e</text><text xml:space="preserve" font-family="Helvetica-Bold,Helvetica" font-weight="bold" font-size="44.0" fill="#FEFFFF" transform="matrix(1.00, 0.00, -0.00, -1.00, 577.7, 64.8)">ﬂ</text><text xml:space="preserve" font-family="Helvetica-Bold,Helvetica" font-weight="bold" font-size="44.0" fill="#FEFFFF" transform="matrix(1.00, 0.00, -0.00, -1.00, 604.6, 64.8)">e</text><text xml:space="preserve" font-family="Helvetica-Bold,Helvetica" font-weight="bold" font-size="44.0" fill="#FEFFFF" transform="matrix(1.00, 0.00, -0.00, -1.00, 629.0, 64.8)">c</text><text xml:space="preserve" font-family="Helvetica-Bold,Helvetica" font-weight="bold" font-size="44.0" fill="#FEFFFF" transform="matrix(1.00, 0.00, -0.00, -1.00, 653.5, 64.8)">t</text><text xml:space="preserve" font-family="Helvetica-Bold,Helvetica" font-weight="bold" font-size="44.0" fill="#FEFFFF" transform="matrix(1.00, 0.00, -0.00, -1.00, 668.2, 64.8)">s</text><text xml:space="preserve" font-family="Helvetica-Light,Helvetica" font-size="44.0" fill="#FEFFFF" transform="matrix(1.00, 0.00, -0.00, -1.00, 692.6, 64.8)"> </text><text xml:space="preserve" font-family="Helvetica-Light,Helvetica" font-size="44.0" fill="#FEFFFF" transform="matrix(1.00, 0.00, -0.00, -1.00, 704.8, 64.8)">a</text><text xml:space="preserve" font-family="Helvetica-Light,Helvetica" font-size="44.0" fill="#FEFFFF" transform="matrix(1.00, 0.00, -0.00, -1.00, 729.3, 64.8)">n</text><text xml:space="preserve" font-family="Helvetica-Light,Helvetica" font-size="44.0" fill="#FEFFFF" transform="matrix(1.00, 0.00, -0.00, -1.00, 753.8, 64.8)"> </text><text xml:space="preserve" font-family="Helvetica-Light,Helvetica" font-size="44.0" fill="#FEFFFF" transform="matrix(1.00, 0.00, -0.00, -1.00, 42.0, 11.8)">e</text><text xml:space="preserve" font-family="Helvetica-Light,Helvetica" font-size="44.0" fill="#FEFFFF" transform="matrix(1.00, 0.00, -0.00, -1.00, 66.5, 11.8)">x</text><text xml:space="preserve" font-family="Helvetica-Light,Helvetica" font-size="44.0" fill="#FEFFFF" transform="matrix(1.00, 0.00, -0.00, -1.00, 88.5, 11.8)">i</text><text xml:space="preserve" font-family="Helvetica-Light,Helvetica" font-size="44.0" fill="#FEFFFF" transform="matrix(1.00, 0.00, -0.00, -1.00, 98.2, 11.8)">s</text><text xml:space="preserve" font-family="Helvetica-Light,Helvetica" font-size="44.0" fill="#FEFFFF" transform="matrix(1.00, 0.00, -0.00, -1.00, 120.2, 11.8)">t</text><text xml:space="preserve" font-family="Helvetica-Light,Helvetica" font-size="44.0" fill="#FEFFFF" transform="matrix(1.00, 0.00, -0.00, -1.00, 132.5, 11.8)">i</text><text xml:space="preserve" font-family="Helvetica-Light,Helvetica" font-size="44.0" fill="#FEFFFF" transform="matrix(1.00, 0.00, -0.00, -1.00, 142.2, 11.8)">n</text><text xml:space="preserve" font-family="Helvetica-Light,Helvetica" font-size="44.0" fill="#FEFFFF" transform="matrix(1.00, 0.00, -0.00, -1.00, 166.7, 11.8)">g</text><text xml:space="preserve" font-family="Helvetica-Light,Helvetica" font-size="44.0" fill="#FEFFFF" transform="matrix(1.00, 0.00, -0.00, -1.00, 193.6, 11.8)"> </text><text xml:space="preserve" font-family="Helvetica-Light,Helvetica" font-size="44.0" fill="#FEFFFF" transform="matrix(1.00, 0.00, -0.00, -1.00, 205.8, 11.8)">b</text><text xml:space="preserve" font-family="Helvetica-Light,Helvetica" font-size="44.0" fill="#FEFFFF" transform="matrix(1.00, 0.00, -0.00, -1.00, 232.7, 11.8)">r</text><text xml:space="preserve" font-family="Helvetica-Light,Helvetica" font-size="44.0" fill="#FEFFFF" transform="matrix(1.00, 0.00, -0.00, -1.00, 247.3, 11.8)">a</text><text xml:space="preserve" font-family="Helvetica-Light,Helvetica" font-size="44.0" fill="#FEFFFF" transform="matrix(1.00, 0.00, -0.00, -1.00, 271.8, 11.8)">n</text><text xml:space="preserve" font-family="Helvetica-Light,Helvetica" font-size="44.0" fill="#FEFFFF" transform="matrix(1.00, 0.00, -0.00, -1.00, 296.3, 11.8)">c</text><text xml:space="preserve" font-family="Helvetica-Light,Helvetica" font-size="44.0" fill="#FEFFFF" transform="matrix(1.00, 0.00, -0.00, -1.00, 320.7, 11.8)">h</text><text xml:space="preserve" font-family="Helvetica-Light,Helvetica" font-size="44.0" fill="#FEFFFF" transform="matrix(1.00, 0.00, -0.00, -1.00, 345.2, 11.8)"> </text><text xml:space="preserve" font-family="Helvetica-Light,Helvetica" font-size="44.0" fill="#FEFFFF" transform="matrix(1.00, 0.00, -0.00, -1.00, 357.4, 11.8)">o</text><text xml:space="preserve" font-family="Helvetica-Light,Helvetica" font-size="44.0" fill="#FEFFFF" transform="matrix(1.00, 0.00, -0.00, -1.00, 381.9, 11.8)">n</text><text xml:space="preserve" font-family="Helvetica-Light,Helvetica" font-size="44.0" fill="#FEFFFF" transform="matrix(1.00, 0.00, -0.00, -1.00, 406.4, 11.8)"> </text><text xml:space="preserve" font-family="Helvetica-Light,Helvetica" font-size="44.0" fill="#FEFFFF" transform="matrix(1.00, 0.00, -0.00, -1.00, 418.6, 11.8)">G</text><text xml:space="preserve" font-family="Helvetica-Light,Helvetica" font-size="44.0" fill="#FEFFFF" transform="matrix(1.00, 0.00, -0.00, -1.00, 452.8, 11.8)">i</text><text xml:space="preserve" font-family="Helvetica-Light,Helvetica" font-size="44.0" fill="#FEFFFF" transform="matrix(1.00, 0.00, -0.00, -1.00, 462.6, 11.8)">t</text><text xml:space="preserve" font-family="Helvetica-Light,Helvetica" font-size="44.0" fill="#FEFFFF" transform="matrix(1.00, 0.00, -0.00, -1.00, 474.8, 11.8)">h</text><text xml:space="preserve" font-family="Helvetica-Light,Helvetica" font-size="44.0" fill="#FEFFFF" transform="matrix(1.00, 0.00, -0.00, -1.00, 499.3, 11.8)">u</text><text xml:space="preserve" font-family="Helvetica-Light,Helvetica" font-size="44.0" fill="#FEFFFF" transform="matrix(1.00, 0.00, -0.00, -1.00, 523.8, 11.8)">b</text></g></svg>