<?xml version="1.0" encoding="UTF-8" standalone="no"?><svg xmlns="http://www.w3.org/2000/svg" xmlns:xlink="http://www.w3.org/1999/xlink" clip-rule="evenodd" stroke-miterlimit="10" viewBox="0 0 540 71"><desc>SVG generated by Keynote</desc><defs></defs><g transform="matrix(1.00, 0.00, -0.00, -1.00, 0.0, 71.0)"><path d="M 1.0 69.0 L 539.0 69.0 L 539.0 1.0 L 1.0 1.0 Z M 1.0 69.0 " fill="#52575F"></path><g><clipPath id="clip0x618000abed80"><path d="M -7.5 -7.5 L 547.0 -7.5 L 547.0 77.5 L -7.5 77.5 Z M -7.5 -7.5 "></path></clipPath><g clip-path="url(#clip0x618000abed80)"><text xml:space="preserve" font-family="Helvetica-Light,Helvetica" font-size="50.0" fill="#FEFFFF" transform="matrix(1.00, 0.00, -0.00, -1.00, 26.7, 16.5)">g</text><text xml:space="preserve" font-family="Helvetica-Light,Helvetica" font-size="50.0" fill="#FEFFFF" transform="matrix(1.00, 0.00, -0.00, -1.00, 57.2, 16.5)">i</text><text xml:space="preserve" font-family="Helvetica-Light,Helvetica" font-size="50.0" fill="#FEFFFF" transform="matrix(1.00, 0.00, -0.00, -1.00, 68.3, 16.5)">t</text><text xml:space="preserve" font-family="Helvetica-Light,Helvetica" font-size="50.0" fill="#FEFFFF" transform="matrix(1.00, 0.00, -0.00, -1.00, 82.2, 16.5)"> </text><text xml:space="preserve" font-family="Helvetica-Light,Helvetica" font-size="50.0" fill="#FEFFFF" transform="matrix(1.00, 0.00, -0.00, -1.00, 96.1, 16.5)">c</text><text xml:space="preserve" font-family="Helvetica-Light,Helvetica" font-size="50.0" fill="#FEFFFF" transform="matrix(1.00, 0.00, -0.00, -1.00, 123.9, 16.5)">h</text><text xml:space="preserve" font-family="Helvetica-Light,Helvetica" font-size="50.0" fill="#FEFFFF" transform="matrix(1.00, 0.00, -0.00, -1.00, 151.7, 16.5)">e</text><text xml:space="preserve" font-family="Helvetica-Light,Helvetica" font-size="50.0" fill="#FEFFFF" transform="matrix(1.00, 0.00, -0.00, -1.00, 179.5, 16.5)">c</text><text xml:space="preserve" font-family="Helvetica-Light,Helvetica" font-size="50.0" fill="#FEFFFF" transform="matrix(1.00, 0.00, -0.00, -1.00, 207.3, 16.5)">k</text><text xml:space="preserve" font-family="Helvetica-Light,Helvetica" font-size="50.0" fill="#FEFFFF" transform="matrix(1.00, 0.00, -0.00, -1.00, 232.3, 16.5)">o</text><text xml:space="preserve" font-family="Helvetica-Light,Helvetica" font-size="50.0" fill="#FEFFFF" transform="matrix(1.00, 0.00, -0.00, -1.00, 260.1, 16.5)">u</text><text xml:space="preserve" font-family="Helvetica-Light,Helvetica" font-size="50.0" fill="#FEFFFF" transform="matrix(1.00, 0.00, -0.00, -1.00, 287.9, 16.5)">t</text><text xml:space="preserve" font-family="Helvetica-Light,Helvetica" font-size="50.0" fill="#FEFFFF" transform="matrix(1.00, 0.00, -0.00, -1.00, 301.8, 16.5)"> </text><text xml:space="preserve" font-family="Helvetica-Light,Helvetica" font-size="50.0" fill="#FEFFFF" transform="matrix(1.00, 0.00, -0.00, -1.00, 315.7, 16.5)">{</text><text xml:space="preserve" font-family="Helvetica-Light,Helvetica" font-size="50.0" fill="#FEFFFF" transform="matrix(1.00, 0.00, -0.00, -1.00, 332.4, 16.5)">c</text><text xml:space="preserve" font-family="Helvetica-Light,Helvetica" font-size="50.0" fill="#FEFFFF" transform="matrix(1.00, 0.00, -0.00, -1.00, 360.2, 16.5)">o</text><text xml:space="preserve" font-family="Helvetica-Light,Helvetica" font-size="50.0" fill="#FEFFFF" transform="matrix(1.00, 0.00, -0.00, -1.00, 388.0, 16.5)">m</text><text xml:space="preserve" font-family="Helvetica-Light,Helvetica" font-size="50.0" fill="#FEFFFF" transform="matrix(1.00, 0.00, -0.00, -1.00, 429.6, 16.5)">m</text><text xml:space="preserve" font-family="Helvetica-Light,Helvetica" font-size="50.0" fill="#FEFFFF" transform="matrix(1.00, 0.00, -0.00, -1.00, 471.3, 16.5)">i</text><text xml:space="preserve" font-family="Helvetica-Light,Helvetica" font-size="50.0" fill="#FEFFFF" transform="matrix(1.00, 0.00, -0.00, -1.00, 482.4, 16.5)">t</text><text xml:space="preserve" font-family="Helvetica-Light,Helvetica" font-size="50.0" fill="#FEFFFF" transform="matrix(1.00, 0.00, -0.00, -1.00, 496.3, 16.5)">}</text></g></g></g></svg>