<?xml version="1.0" encoding="UTF-8" standalone="no"?><svg xmlns="http://www.w3.org/2000/svg" xmlns:xlink="http://www.w3.org/1999/xlink" clip-rule="evenodd" stroke-miterlimit="10" viewBox="0 0 1477 50"><desc>SVG generated by Keynote</desc><defs></defs><g transform="matrix(1.00, 0.00, -0.00, -1.00, 0.0, 50.0)"><text xml:space="preserve" font-family="Helvetica-Light,Helvetica" font-size="33.7" fill="#FEFFFF" transform="matrix(1.00, 0.00, -0.00, -1.00, 0.0, 17.7)">•</text><text xml:space="preserve" font-family="Helvetica-Light,Helvetica" font-size="49.5" fill="#FEFFFF" transform="matrix(1.00, 0.00, -0.00, -1.00, 35.6, 12.4)">“</text><text xml:space="preserve" font-family="Helvetica-Light,Helvetica" font-size="49.5" fill="#FEFFFF" transform="matrix(1.00, 0.00, -0.00, -1.00, 54.9, 12.4)">—</text><text xml:space="preserve" font-family="Helvetica-Light,Helvetica" font-size="49.5" fill="#FEFFFF" transform="matrix(1.00, 0.00, -0.00, -1.00, 104.4, 12.4)"> </text><text xml:space="preserve" font-family="Helvetica-Light,Helvetica" font-size="49.5" fill="#FEFFFF" transform="matrix(1.00, 0.00, -0.00, -1.00, 118.2, 12.4)">m</text><text xml:space="preserve" font-family="Helvetica-Light,Helvetica" font-size="49.5" fill="#FEFFFF" transform="matrix(1.00, 0.00, -0.00, -1.00, 159.4, 12.4)">i</text><text xml:space="preserve" font-family="Helvetica-Light,Helvetica" font-size="49.5" fill="#FEFFFF" transform="matrix(1.00, 0.00, -0.00, -1.00, 170.4, 12.4)">x</text><text xml:space="preserve" font-family="Helvetica-Light,Helvetica" font-size="49.5" fill="#FEFFFF" transform="matrix(1.00, 0.00, -0.00, -1.00, 195.1, 12.4)">e</text><text xml:space="preserve" font-family="Helvetica-Light,Helvetica" font-size="49.5" fill="#FEFFFF" transform="matrix(1.00, 0.00, -0.00, -1.00, 222.7, 12.4)">d</text><text xml:space="preserve" font-family="Helvetica-Light,Helvetica" font-size="49.5" fill="#FEFFFF" transform="matrix(1.00, 0.00, -0.00, -1.00, 252.9, 12.4)">”</text><text xml:space="preserve" font-family="Helvetica-Light,Helvetica" font-size="49.5" fill="#FEFFFF" transform="matrix(1.00, 0.00, -0.00, -1.00, 272.2, 12.4)"> </text><text xml:space="preserve" font-family="Helvetica-Light,Helvetica" font-size="49.5" fill="#FEFFFF" transform="matrix(1.00, 0.00, -0.00, -1.00, 285.9, 12.4)">k</text><text xml:space="preserve" font-family="Helvetica-Light,Helvetica" font-size="49.5" fill="#FEFFFF" transform="matrix(1.00, 0.00, -0.00, -1.00, 310.7, 12.4)">e</text><text xml:space="preserve" font-family="Helvetica-Light,Helvetica" font-size="49.5" fill="#FEFFFF" transform="matrix(1.00, 0.00, -0.00, -1.00, 338.2, 12.4)">e</text><text xml:space="preserve" font-family="Helvetica-Light,Helvetica" font-size="49.5" fill="#FEFFFF" transform="matrix(1.00, 0.00, -0.00, -1.00, 365.7, 12.4)">p</text><text xml:space="preserve" font-family="Helvetica-Light,Helvetica" font-size="49.5" fill="#FEFFFF" transform="matrix(1.00, 0.00, -0.00, -1.00, 396.0, 12.4)">s</text><text xml:space="preserve" font-family="Helvetica-Light,Helvetica" font-size="49.5" fill="#FEFFFF" transform="matrix(1.00, 0.00, -0.00, -1.00, 420.7, 12.4)"> </text><text xml:space="preserve" font-family="Helvetica-Light,Helvetica" font-size="49.5" fill="#FEFFFF" transform="matrix(1.00, 0.00, -0.00, -1.00, 434.5, 12.4)">c</text><text xml:space="preserve" font-family="Helvetica-Light,Helvetica" font-size="49.5" fill="#FEFFFF" transform="matrix(1.00, 0.00, -0.00, -1.00, 462.0, 12.4)">h</text><text xml:space="preserve" font-family="Helvetica-Light,Helvetica" font-size="49.5" fill="#FEFFFF" transform="matrix(1.00, 0.00, -0.00, -1.00, 489.5, 12.4)">a</text><text xml:space="preserve" font-family="Helvetica-Light,Helvetica" font-size="49.5" fill="#FEFFFF" transform="matrix(1.00, 0.00, -0.00, -1.00, 517.0, 12.4)">n</text><text xml:space="preserve" font-family="Helvetica-Light,Helvetica" font-size="49.5" fill="#FEFFFF" transform="matrix(1.00, 0.00, -0.00, -1.00, 544.5, 12.4)">g</text><text xml:space="preserve" font-family="Helvetica-Light,Helvetica" font-size="49.5" fill="#FEFFFF" transform="matrix(1.00, 0.00, -0.00, -1.00, 574.8, 12.4)">e</text><text xml:space="preserve" font-family="Helvetica-Light,Helvetica" font-size="49.5" fill="#FEFFFF" transform="matrix(1.00, 0.00, -0.00, -1.00, 602.3, 12.4)">s</text><text xml:space="preserve" font-family="Helvetica-Light,Helvetica" font-size="49.5" fill="#FEFFFF" transform="matrix(1.00, 0.00, -0.00, -1.00, 627.1, 12.4)"> </text><text xml:space="preserve" font-family="Helvetica-Light,Helvetica" font-size="49.5" fill="#FEFFFF" transform="matrix(1.00, 0.00, -0.00, -1.00, 640.8, 12.4)">b</text><text xml:space="preserve" font-family="Helvetica-Light,Helvetica" font-size="49.5" fill="#FEFFFF" transform="matrix(1.00, 0.00, -0.00, -1.00, 671.1, 12.4)">u</text><text xml:space="preserve" font-family="Helvetica-Light,Helvetica" font-size="49.5" fill="#FEFFFF" transform="matrix(1.00, 0.00, -0.00, -1.00, 698.6, 12.4)">t</text><text xml:space="preserve" font-family="Helvetica-Light,Helvetica" font-size="49.5" fill="#FEFFFF" transform="matrix(1.00, 0.00, -0.00, -1.00, 712.4, 12.4)"> </text><text xml:space="preserve" font-family="Helvetica-Light,Helvetica" font-size="49.5" fill="#FEFFFF" transform="matrix(1.00, 0.00, -0.00, -1.00, 726.1, 12.4)">m</text><text xml:space="preserve" font-family="Helvetica-Light,Helvetica" font-size="49.5" fill="#FEFFFF" transform="matrix(1.00, 0.00, -0.00, -1.00, 767.3, 12.4)">a</text><text xml:space="preserve" font-family="Helvetica-Light,Helvetica" font-size="49.5" fill="#FEFFFF" transform="matrix(1.00, 0.00, -0.00, -1.00, 794.9, 12.4)">r</text><text xml:space="preserve" font-family="Helvetica-Light,Helvetica" font-size="49.5" fill="#FEFFFF" transform="matrix(1.00, 0.00, -0.00, -1.00, 811.4, 12.4)">k</text><text xml:space="preserve" font-family="Helvetica-Light,Helvetica" font-size="49.5" fill="#FEFFFF" transform="matrix(1.00, 0.00, -0.00, -1.00, 836.1, 12.4)"> </text><text xml:space="preserve" font-family="Helvetica-Light,Helvetica" font-size="49.5" fill="#FEFFFF" transform="matrix(1.00, 0.00, -0.00, -1.00, 849.9, 12.4)">a</text><text xml:space="preserve" font-family="Helvetica-Light,Helvetica" font-size="49.5" fill="#FEFFFF" transform="matrix(1.00, 0.00, -0.00, -1.00, 877.4, 12.4)">s</text><text xml:space="preserve" font-family="Helvetica-Light,Helvetica" font-size="49.5" fill="#FEFFFF" transform="matrix(1.00, 0.00, -0.00, -1.00, 902.1, 12.4)"> </text><text xml:space="preserve" font-family="Helvetica-Light,Helvetica" font-size="49.5" fill="#FEFFFF" transform="matrix(1.00, 0.00, -0.00, -1.00, 915.9, 12.4)">“</text><text xml:space="preserve" font-family="Helvetica-Light,Helvetica" font-size="49.5" fill="#FEFFFF" transform="matrix(1.00, 0.00, -0.00, -1.00, 935.2, 12.4)">m</text><text xml:space="preserve" font-family="Helvetica-Light,Helvetica" font-size="49.5" fill="#FEFFFF" transform="matrix(1.00, 0.00, -0.00, -1.00, 976.4, 12.4)">o</text><text xml:space="preserve" font-family="Helvetica-Light,Helvetica" font-size="49.5" fill="#FEFFFF" transform="matrix(1.00, 0.00, -0.00, -1.00, 1003.9, 12.4)">d</text><text xml:space="preserve" font-family="Helvetica-Light,Helvetica" font-size="49.5" fill="#FEFFFF" transform="matrix(1.00, 0.00, -0.00, -1.00, 1034.2, 12.4)">i</text><text xml:space="preserve" font-family="Helvetica-Light,Helvetica" font-size="49.5" fill="#FEFFFF" transform="matrix(1.00, 0.00, -0.00, -1.00, 1045.1, 12.4)">ﬁ</text><text xml:space="preserve" font-family="Helvetica-Light,Helvetica" font-size="49.5" fill="#FEFFFF" transform="matrix(1.00, 0.00, -0.00, -1.00, 1069.9, 12.4)">e</text><text xml:space="preserve" font-family="Helvetica-Light,Helvetica" font-size="49.5" fill="#FEFFFF" transform="matrix(1.00, 0.00, -0.00, -1.00, 1097.4, 12.4)">d</text><text xml:space="preserve" font-family="Helvetica-Light,Helvetica" font-size="49.5" fill="#FEFFFF" transform="matrix(1.00, 0.00, -0.00, -1.00, 1127.7, 12.4)">”</text><text xml:space="preserve" font-family="Helvetica-Light,Helvetica" font-size="49.5" fill="#FEFFFF" transform="matrix(1.00, 0.00, -0.00, -1.00, 1146.9, 12.4)"> </text><text xml:space="preserve" font-family="Helvetica-Light,Helvetica" font-size="49.5" fill="#FEFFFF" transform="matrix(1.00, 0.00, -0.00, -1.00, 1160.7, 12.4)">o</text><text xml:space="preserve" font-family="Helvetica-Light,Helvetica" font-size="49.5" fill="#FEFFFF" transform="matrix(1.00, 0.00, -0.00, -1.00, 1188.2, 12.4)">r</text><text xml:space="preserve" font-family="Helvetica-Light,Helvetica" font-size="49.5" fill="#FEFFFF" transform="matrix(1.00, 0.00, -0.00, -1.00, 1204.7, 12.4)"> </text><text xml:space="preserve" font-family="Helvetica-Light,Helvetica" font-size="49.5" fill="#FEFFFF" transform="matrix(1.00, 0.00, -0.00, -1.00, 1218.4, 12.4)">“</text><text xml:space="preserve" font-family="Helvetica-Light,Helvetica" font-size="49.5" fill="#FEFFFF" transform="matrix(1.00, 0.00, -0.00, -1.00, 1237.7, 12.4)">u</text><text xml:space="preserve" font-family="Helvetica-Light,Helvetica" font-size="49.5" fill="#FEFFFF" transform="matrix(1.00, 0.00, -0.00, -1.00, 1265.2, 12.4)">n</text><text xml:space="preserve" font-family="Helvetica-Light,Helvetica" font-size="49.5" fill="#FEFFFF" transform="matrix(1.00, 0.00, -0.00, -1.00, 1292.7, 12.4)">t</text><text xml:space="preserve" font-family="Helvetica-Light,Helvetica" font-size="49.5" fill="#FEFFFF" transform="matrix(1.00, 0.00, -0.00, -1.00, 1306.5, 12.4)">r</text><text xml:space="preserve" font-family="Helvetica-Light,Helvetica" font-size="49.5" fill="#FEFFFF" transform="matrix(1.00, 0.00, -0.00, -1.00, 1323.0, 12.4)">a</text><text xml:space="preserve" font-family="Helvetica-Light,Helvetica" font-size="49.5" fill="#FEFFFF" transform="matrix(1.00, 0.00, -0.00, -1.00, 1350.5, 12.4)">c</text><text xml:space="preserve" font-family="Helvetica-Light,Helvetica" font-size="49.5" fill="#FEFFFF" transform="matrix(1.00, 0.00, -0.00, -1.00, 1378.0, 12.4)">k</text><text xml:space="preserve" font-family="Helvetica-Light,Helvetica" font-size="49.5" fill="#FEFFFF" transform="matrix(1.00, 0.00, -0.00, -1.00, 1402.8, 12.4)">e</text><text xml:space="preserve" font-family="Helvetica-Light,Helvetica" font-size="49.5" fill="#FEFFFF" transform="matrix(1.00, 0.00, -0.00, -1.00, 1430.3, 12.4)">d</text><text xml:space="preserve" font-family="Helvetica-Light,Helvetica" font-size="49.5" fill="#FEFFFF" transform="matrix(1.00, 0.00, -0.00, -1.00, 1460.5, 12.4)">”</text></g></svg>