<?xml version="1.0" encoding="UTF-8" standalone="no"?><svg xmlns="http://www.w3.org/2000/svg" xmlns:xlink="http://www.w3.org/1999/xlink" clip-rule="evenodd" stroke-miterlimit="10" viewBox="0 0 988 74"><desc>SVG generated by Keynote</desc><defs></defs><g transform="matrix(1.00, 0.00, -0.00, -1.00, 0.0, 74.0)"><path d="M 1.0 73.0 L 986.0 73.0 L 986.0 2.0 L 1.0 2.0 Z M 1.2 72.5 " fill="#52575F"></path><g><clipPath id="clip0x6000012ae700"><path d="M -10.4 -14.1 L 997.9 -14.1 L 997.9 84.1 L -10.4 84.1 Z M -10.4 -14.1 "></path></clipPath><g clip-path="url(#clip0x6000012ae700)"><text xml:space="preserve" font-family="Monaco,Monaco" font-size="50.0" fill="#FEFFFF" transform="matrix(1.00, 0.00, -0.00, -1.00, 28.7, 18.2)">g</text><text xml:space="preserve" font-family="Monaco,Monaco" font-size="50.0" fill="#FEFFFF" transform="matrix(1.00, 0.00, -0.00, -1.00, 58.7, 18.2)">i</text><text xml:space="preserve" font-family="Monaco,Monaco" font-size="50.0" fill="#FEFFFF" transform="matrix(1.00, 0.00, -0.00, -1.00, 88.7, 18.2)">t</text><text xml:space="preserve" font-family="Monaco,Monaco" font-size="50.0" fill="#FEFFFF" transform="matrix(1.00, 0.00, -0.00, -1.00, 118.7, 18.2)"> </text><text xml:space="preserve" font-family="Monaco,Monaco" font-size="50.0" fill="#FEFFFF" transform="matrix(1.00, 0.00, -0.00, -1.00, 148.7, 18.2)">c</text><text xml:space="preserve" font-family="Monaco,Monaco" font-size="50.0" fill="#FEFFFF" transform="matrix(1.00, 0.00, -0.00, -1.00, 178.7, 18.2)">h</text><text xml:space="preserve" font-family="Monaco,Monaco" font-size="50.0" fill="#FEFFFF" transform="matrix(1.00, 0.00, -0.00, -1.00, 208.7, 18.2)">e</text><text xml:space="preserve" font-family="Monaco,Monaco" font-size="50.0" fill="#FEFFFF" transform="matrix(1.00, 0.00, -0.00, -1.00, 238.7, 18.2)">c</text><text xml:space="preserve" font-family="Monaco,Monaco" font-size="50.0" fill="#FEFFFF" transform="matrix(1.00, 0.00, -0.00, -1.00, 268.7, 18.2)">k</text><text xml:space="preserve" font-family="Monaco,Monaco" font-size="50.0" fill="#FEFFFF" transform="matrix(1.00, 0.00, -0.00, -1.00, 298.7, 18.2)">o</text><text xml:space="preserve" font-family="Monaco,Monaco" font-size="50.0" fill="#FEFFFF" transform="matrix(1.00, 0.00, -0.00, -1.00, 328.8, 18.2)">u</text><text xml:space="preserve" font-family="Monaco,Monaco" font-size="50.0" fill="#FEFFFF" transform="matrix(1.00, 0.00, -0.00, -1.00, 358.8, 18.2)">t</text><text xml:space="preserve" font-family="Monaco,Monaco" font-size="50.0" fill="#FEFFFF" transform="matrix(1.00, 0.00, -0.00, -1.00, 388.8, 18.2)"> </text><text xml:space="preserve" font-family="Monaco,Monaco" font-size="50.0" fill="#FEFFFF" transform="matrix(1.00, 0.00, -0.00, -1.00, 418.8, 18.2)">H</text><text xml:space="preserve" font-family="Monaco,Monaco" font-size="50.0" fill="#FEFFFF" transform="matrix(1.00, 0.00, -0.00, -1.00, 448.8, 18.2)">E</text><text xml:space="preserve" font-family="Monaco,Monaco" font-size="50.0" fill="#FEFFFF" transform="matrix(1.00, 0.00, -0.00, -1.00, 478.8, 18.2)">A</text><text xml:space="preserve" font-family="Monaco,Monaco" font-size="50.0" fill="#FEFFFF" transform="matrix(1.00, 0.00, -0.00, -1.00, 508.8, 18.2)">D</text><text xml:space="preserve" font-family="Monaco,Monaco" font-size="50.0" fill="#FEFFFF" transform="matrix(1.00, 0.00, -0.00, -1.00, 538.8, 18.2)"> </text><text xml:space="preserve" font-family="Monaco,Monaco" font-size="50.0" fill="#FEFFFF" transform="matrix(1.00, 0.00, -0.00, -1.00, 568.8, 18.2)">—</text><text xml:space="preserve" font-family="Monaco,Monaco" font-size="50.0" fill="#FEFFFF" transform="matrix(1.00, 0.00, -0.00, -1.00, 598.8, 18.2)">-</text><text xml:space="preserve" font-family="Monaco,Monaco" font-size="50.0" fill="#FEFFFF" transform="matrix(1.00, 0.00, -0.00, -1.00, 628.8, 18.2)"> </text><text xml:space="preserve" font-family="Monaco,Monaco" font-size="50.0" fill="#FEFFFF" transform="matrix(1.00, 0.00, -0.00, -1.00, 658.9, 18.2)">f</text><text xml:space="preserve" font-family="Monaco,Monaco" font-size="50.0" fill="#FEFFFF" transform="matrix(1.00, 0.00, -0.00, -1.00, 688.9, 18.2)">i</text><text xml:space="preserve" font-family="Monaco,Monaco" font-size="50.0" fill="#FEFFFF" transform="matrix(1.00, 0.00, -0.00, -1.00, 718.9, 18.2)">l</text><text xml:space="preserve" font-family="Monaco,Monaco" font-size="50.0" fill="#FEFFFF" transform="matrix(1.00, 0.00, -0.00, -1.00, 748.9, 18.2)">e</text><text xml:space="preserve" font-family="Monaco,Monaco" font-size="50.0" fill="#FEFFFF" transform="matrix(1.00, 0.00, -0.00, -1.00, 778.9, 18.2)">_</text><text xml:space="preserve" font-family="Monaco,Monaco" font-size="50.0" fill="#FEFFFF" transform="matrix(1.00, 0.00, -0.00, -1.00, 808.9, 18.2)">a</text><text xml:space="preserve" font-family="Monaco,Monaco" font-size="50.0" fill="#FEFFFF" transform="matrix(1.00, 0.00, -0.00, -1.00, 838.9, 18.2)">.</text><text xml:space="preserve" font-family="Monaco,Monaco" font-size="50.0" fill="#FEFFFF" transform="matrix(1.00, 0.00, -0.00, -1.00, 868.9, 18.2)">t</text><text xml:space="preserve" font-family="Monaco,Monaco" font-size="50.0" fill="#FEFFFF" transform="matrix(1.00, 0.00, -0.00, -1.00, 898.9, 18.2)">x</text><text xml:space="preserve" font-family="Monaco,Monaco" font-size="50.0" fill="#FEFFFF" transform="matrix(1.00, 0.00, -0.00, -1.00, 928.9, 18.2)">t</text></g></g></g></svg>