<?xml version="1.0" encoding="UTF-8" standalone="no"?><svg xmlns="http://www.w3.org/2000/svg" xmlns:xlink="http://www.w3.org/1999/xlink" clip-rule="evenodd" stroke-miterlimit="10" viewBox="0 0 115 53"><desc>SVG generated by Keynote</desc><defs></defs><g transform="matrix(1.00, 0.00, -0.00, -1.00, 0.0, 53.0)"><path d="M 1.5 13.0 L 1.5 40.5 C 1.5 46.5 6.6 51.5 12.5 51.5 L 102.6 51.5 C 108.5 51.5 113.5 46.5 113.5 40.5 L 113.5 12.8 C 113.5 6.8 108.5 1.5 102.6 1.5 L 12.5 1.5 C 6.6 1.5 1.5 7.0 1.5 13.0 Z M 1.7 12.8 " fill="#52575F"></path><path d="M -0.2 38.3 L -0.2 10.8 C -0.2 4.8 4.8 -0.2 10.8 -0.2 L 100.9 -0.2 C 106.8 -0.2 111.8 4.8 111.8 10.8 L 111.8 38.6 C 111.8 44.6 106.8 49.8 100.9 49.8 L 10.8 49.8 C 4.8 49.8 -0.2 44.3 -0.2 38.3 Z M 0.0 38.6 " fill="none" stroke="#DCDDE0" stroke-width="1.00" transform="matrix(1.00, 0.00, 0.00, -1.00, 1.7, 51.3)"></path><g><clipPath id="clip0x6080008a5fa0"><path d="M 0.6 1.9 L 114.5 1.9 L 114.5 51.3 L 0.6 51.3 Z M 0.6 1.9 "></path></clipPath><g clip-path="url(#clip0x6080008a5fa0)"><text xml:space="preserve" font-family="Helvetica-Light,Helvetica" font-size="24.0" fill="#FEFFFF" transform="matrix(1.00, 0.00, -0.00, -1.00, 20.9, 17.9)">m</text><text xml:space="preserve" font-family="Helvetica-Light,Helvetica" font-size="24.0" fill="#FEFFFF" transform="matrix(1.00, 0.00, -0.00, -1.00, 40.9, 17.9)">a</text><text xml:space="preserve" font-family="Helvetica-Light,Helvetica" font-size="24.0" fill="#FEFFFF" transform="matrix(1.00, 0.00, -0.00, -1.00, 54.2, 17.9)">s</text><text xml:space="preserve" font-family="Helvetica-Light,Helvetica" font-size="24.0" fill="#FEFFFF" transform="matrix(1.00, 0.00, -0.00, -1.00, 66.2, 17.9)">t</text><text xml:space="preserve" font-family="Helvetica-Light,Helvetica" font-size="24.0" fill="#FEFFFF" transform="matrix(1.00, 0.00, -0.00, -1.00, 72.9, 17.9)">e</text><text xml:space="preserve" font-family="Helvetica-Light,Helvetica" font-size="24.0" fill="#FEFFFF" transform="matrix(1.00, 0.00, -0.00, -1.00, 86.2, 17.9)">r</text></g></g></g></svg>