<?xml version="1.0" encoding="UTF-8" standalone="no"?><svg xmlns="http://www.w3.org/2000/svg" xmlns:xlink="http://www.w3.org/1999/xlink" clip-rule="evenodd" stroke-miterlimit="10" viewBox="0 0 143 114"><desc>SVG generated by Keynote</desc><defs></defs><g transform="matrix(1.00, 0.00, -0.00, -1.00, 0.0, 114.0)"><g><clipPath id="clip0x600000aac120"><path d="M 137.4 0.5 L 54.2 61.5 L 58.9 68.0 L 142.1 6.9 Z M 137.4 0.5 "></path></clipPath><g clip-path="url(#clip0x600000aac120)"><path d="M 0.0 0.0 L 101.2 0.0 " fill="none" stroke="#FEFFFE" stroke-width="6.00" transform="matrix(-0.81, 0.59, 0.59, 0.81, 138.9, 4.3)"></path></g></g><g><clipPath id="clip0x600000aac300"><path d="M 0.8 61.5 L 115.5 61.5 L 115.5 113.9 L 0.8 113.9 Z M 0.8 61.5 "></path></clipPath><g clip-path="url(#clip0x600000aac300)"><g opacity="0.71"><g><clipPath id="clip0x600000aac5a0"><path d="M 1.0 62.0 L 115.0 62.0 L 115.0 113.0 L 1.0 113.0 Z M 1.0 62.0 "></path></clipPath><g clip-path="url(#clip0x600000aac5a0)"><path d="M 2.5 74.0 L 2.5 101.6 C 2.5 107.5 7.1 112.5 13.1 112.5 L 103.1 112.5 C 109.1 112.5 113.5 107.5 113.5 101.6 L 113.5 73.8 C 113.5 67.8 109.1 62.5 103.1 62.5 L 13.1 62.5 C 7.1 62.5 2.5 68.0 2.5 74.0 Z M 2.3 73.8 " fill="#52575F"></path><path d="M 0.2 38.4 L 0.2 10.8 C 0.2 4.8 4.8 -0.1 10.8 -0.1 L 100.9 -0.1 C 106.8 -0.1 111.2 4.8 111.2 10.8 L 111.2 38.6 C 111.2 44.6 106.8 49.9 100.9 49.9 L 10.8 49.9 C 4.8 49.9 0.2 44.4 0.2 38.4 Z M 0.0 38.6 " fill="none" stroke="#DCDDE0" stroke-width="1.00" transform="matrix(1.00, 0.00, 0.00, -1.00, 2.3, 112.4)"></path></g></g></g></g></g><g opacity="0.71"><g><clipPath id="clip0x600000aac900"><path d="M 1.1 63.0 L 115.0 63.0 L 115.0 112.4 L 1.1 112.4 Z M 1.1 63.0 "></path></clipPath><g clip-path="url(#clip0x600000aac900)"><text xml:space="preserve" font-family="Helvetica-Light,Helvetica" font-size="24.0" fill="#FEFFFF" transform="matrix(1.00, 0.00, -0.00, -1.00, 14.8, 78.9)">d</text><text xml:space="preserve" font-family="Helvetica-Light,Helvetica" font-size="24.0" fill="#FEFFFF" transform="matrix(1.00, 0.00, -0.00, -1.00, 29.4, 78.9)">e</text><text xml:space="preserve" font-family="Helvetica-Light,Helvetica" font-size="24.0" fill="#FEFFFF" transform="matrix(1.00, 0.00, -0.00, -1.00, 42.8, 78.9)">v</text><text xml:space="preserve" font-family="Helvetica-Light,Helvetica" font-size="24.0" fill="#FEFFFF" transform="matrix(1.00, 0.00, -0.00, -1.00, 54.8, 78.9)">e</text><text xml:space="preserve" font-family="Helvetica-Light,Helvetica" font-size="24.0" fill="#FEFFFF" transform="matrix(1.00, 0.00, -0.00, -1.00, 68.1, 78.9)">l</text><text xml:space="preserve" font-family="Helvetica-Light,Helvetica" font-size="24.0" fill="#FEFFFF" transform="matrix(1.00, 0.00, -0.00, -1.00, 73.5, 78.9)">o</text><text xml:space="preserve" font-family="Helvetica-Light,Helvetica" font-size="24.0" fill="#FEFFFF" transform="matrix(1.00, 0.00, -0.00, -1.00, 86.8, 78.9)">p</text></g></g></g></g></svg>