<?xml version="1.0" encoding="UTF-8" standalone="no"?><svg xmlns="http://www.w3.org/2000/svg" xmlns:xlink="http://www.w3.org/1999/xlink" clip-rule="evenodd" stroke-miterlimit="10" viewBox="0 0 159 114"><desc>SVG generated by Keynote</desc><defs></defs><g transform="matrix(1.00, 0.00, -0.00, -1.00, 0.0, 114.0)"><g><clipPath id="clip0x6100008a1200"><path d="M 66.5 0.9 L 66.5 60.0 L 92.5 60.0 L 92.5 0.9 Z M 66.5 0.9 "></path></clipPath><g clip-path="url(#clip0x6100008a1200)"><path d="M 0.1 -0.5 L 33.1 -0.5 L 36.1 -0.5 " fill="none" stroke="#FEFFFE" stroke-width="6.00" transform="matrix(0.00, 1.00, 1.00, 0.00, 79.5, 1.9)"></path><path d="M 91.0 35.0 L 79.0 59.0 L 67.0 35.0 Z M 91.0 35.0 " fill="#FEFFFE"></path></g></g><g><clipPath id="clip0x6100008a1740"><path d="M 0.9 58.4 L 158.1 58.4 L 158.1 113.1 L 0.9 113.1 Z M 0.9 58.4 "></path></clipPath><g clip-path="url(#clip0x6100008a1740)"><path d="M 2.0 112.0 L 157.0 112.0 L 157.0 59.0 L 2.0 59.0 Z M 1.9 112.1 " fill="#52575F"></path></g></g><g><clipPath id="clip0x6100008a1980"><path d="M -0.1 59.4 L 159.1 59.4 L 159.1 112.1 L -0.1 112.1 Z M -0.1 59.4 "></path></clipPath><g clip-path="url(#clip0x6100008a1980)"><text xml:space="preserve" font-family="Helvetica-Light,Helvetica" font-size="24.0" fill="#FEFFFF" transform="matrix(1.00, 0.00, -0.00, -1.00, 18.1, 76.6)">4</text><text xml:space="preserve" font-family="Helvetica-Light,Helvetica" font-size="24.0" fill="#FEFFFF" transform="matrix(1.00, 0.00, -0.00, -1.00, 31.5, 76.6)">t</text><text xml:space="preserve" font-family="Helvetica-Light,Helvetica" font-size="24.0" fill="#FEFFFF" transform="matrix(1.00, 0.00, -0.00, -1.00, 38.1, 76.6)">h</text><text xml:space="preserve" font-family="Helvetica-Light,Helvetica" font-size="24.0" fill="#FEFFFF" transform="matrix(1.00, 0.00, -0.00, -1.00, 51.5, 76.6)"> </text><text xml:space="preserve" font-family="Helvetica-Light,Helvetica" font-size="24.0" fill="#FEFFFF" transform="matrix(1.00, 0.00, -0.00, -1.00, 58.1, 76.6)">C</text><text xml:space="preserve" font-family="Helvetica-Light,Helvetica" font-size="24.0" fill="#FEFFFF" transform="matrix(1.00, 0.00, -0.00, -1.00, 75.5, 76.6)">o</text><text xml:space="preserve" font-family="Helvetica-Light,Helvetica" font-size="24.0" fill="#FEFFFF" transform="matrix(1.00, 0.00, -0.00, -1.00, 88.8, 76.6)">m</text><text xml:space="preserve" font-family="Helvetica-Light,Helvetica" font-size="24.0" fill="#FEFFFF" transform="matrix(1.00, 0.00, -0.00, -1.00, 108.8, 76.6)">m</text><text xml:space="preserve" font-family="Helvetica-Light,Helvetica" font-size="24.0" fill="#FEFFFF" transform="matrix(1.00, 0.00, -0.00, -1.00, 128.8, 76.6)">i</text><text xml:space="preserve" font-family="Helvetica-Light,Helvetica" font-size="24.0" fill="#FEFFFF" transform="matrix(1.00, 0.00, -0.00, -1.00, 134.1, 76.6)">t</text><text xml:space="preserve" font-family="Helvetica-Light,Helvetica" font-size="24.0" fill="#FEFFFF" transform="matrix(1.00, 0.00, -0.00, -1.00, 140.8, 76.6)"> </text></g></g></g></svg>