<?xml version="1.0" encoding="UTF-8" standalone="no"?><svg xmlns="http://www.w3.org/2000/svg" xmlns:xlink="http://www.w3.org/1999/xlink" clip-rule="evenodd" stroke-miterlimit="10" viewBox="0 0 158 113"><desc>SVG generated by Keynote</desc><defs></defs><g transform="matrix(1.00, 0.00, -0.00, -1.00, 0.0, 113.0)"><g><clipPath id="clip0x600000ab6aa0"><path d="M 66.1 0.3 L 66.1 59.4 L 92.1 59.4 L 92.1 0.3 Z M 66.1 0.3 "></path></clipPath><g clip-path="url(#clip0x600000ab6aa0)"><path d="M -0.3 -0.1 L 33.1 -0.1 L 35.7 -0.1 " fill="none" stroke="#FEFFFE" stroke-width="6.00" transform="matrix(0.00, 1.00, 1.00, 0.00, 79.1, 1.3)"></path><path d="M 91.0 34.0 L 79.0 58.0 L 67.0 34.0 Z M 91.0 34.0 " fill="#FEFFFE"></path></g></g><g><clipPath id="clip0x600000ab6fe0"><path d="M 0.5 57.8 L 157.7 57.8 L 157.7 112.5 L 0.5 112.5 Z M 0.5 57.8 "></path></clipPath><g clip-path="url(#clip0x600000ab6fe0)"><path d="M 2.0 111.0 L 157.0 111.0 L 157.0 59.0 L 2.0 59.0 Z M 1.5 111.5 " fill="#52575F"></path></g></g><g><clipPath id="clip0x600000ab7220"><path d="M -0.5 58.8 L 158.7 58.8 L 158.7 111.5 L -0.5 111.5 Z M -0.5 58.8 "></path></clipPath><g clip-path="url(#clip0x600000ab7220)"><text xml:space="preserve" font-family="Helvetica-Light,Helvetica" font-size="24.0" fill="#FEFFFF" transform="matrix(1.00, 0.00, -0.00, -1.00, 17.8, 76.0)">4</text><text xml:space="preserve" font-family="Helvetica-Light,Helvetica" font-size="24.0" fill="#FEFFFF" transform="matrix(1.00, 0.00, -0.00, -1.00, 31.1, 76.0)">t</text><text xml:space="preserve" font-family="Helvetica-Light,Helvetica" font-size="24.0" fill="#FEFFFF" transform="matrix(1.00, 0.00, -0.00, -1.00, 37.8, 76.0)">h</text><text xml:space="preserve" font-family="Helvetica-Light,Helvetica" font-size="24.0" fill="#FEFFFF" transform="matrix(1.00, 0.00, -0.00, -1.00, 51.1, 76.0)"> </text><text xml:space="preserve" font-family="Helvetica-Light,Helvetica" font-size="24.0" fill="#FEFFFF" transform="matrix(1.00, 0.00, -0.00, -1.00, 57.8, 76.0)">C</text><text xml:space="preserve" font-family="Helvetica-Light,Helvetica" font-size="24.0" fill="#FEFFFF" transform="matrix(1.00, 0.00, -0.00, -1.00, 75.1, 76.0)">o</text><text xml:space="preserve" font-family="Helvetica-Light,Helvetica" font-size="24.0" fill="#FEFFFF" transform="matrix(1.00, 0.00, -0.00, -1.00, 88.5, 76.0)">m</text><text xml:space="preserve" font-family="Helvetica-Light,Helvetica" font-size="24.0" fill="#FEFFFF" transform="matrix(1.00, 0.00, -0.00, -1.00, 108.5, 76.0)">m</text><text xml:space="preserve" font-family="Helvetica-Light,Helvetica" font-size="24.0" fill="#FEFFFF" transform="matrix(1.00, 0.00, -0.00, -1.00, 128.5, 76.0)">i</text><text xml:space="preserve" font-family="Helvetica-Light,Helvetica" font-size="24.0" fill="#FEFFFF" transform="matrix(1.00, 0.00, -0.00, -1.00, 133.8, 76.0)">t</text><text xml:space="preserve" font-family="Helvetica-Light,Helvetica" font-size="24.0" fill="#FEFFFF" transform="matrix(1.00, 0.00, -0.00, -1.00, 140.5, 76.0)"> </text></g></g></g></svg>