<?xml version="1.0" encoding="UTF-8" standalone="no"?><svg xmlns="http://www.w3.org/2000/svg" xmlns:xlink="http://www.w3.org/1999/xlink" clip-rule="evenodd" stroke-miterlimit="10" viewBox="0 0 310 53"><desc>SVG generated by Keynote</desc><defs></defs><g transform="matrix(1.00, 0.00, -0.00, -1.00, 0.0, 53.0)"><path d="M 1.5 13.0 L 1.5 40.4 C 1.5 46.4 6.6 51.5 12.5 51.5 L 296.8 51.5 C 302.8 51.5 307.5 46.4 307.5 40.4 L 307.5 12.7 C 307.5 6.7 302.8 1.5 296.8 1.5 L 12.5 1.5 C 6.6 1.5 1.5 7.0 1.5 13.0 Z M 1.7 12.7 " fill="#52575F"></path><path d="M -0.2 38.2 L -0.2 10.8 C -0.2 4.8 4.8 -0.3 10.8 -0.3 L 295.1 -0.3 C 301.0 -0.3 305.8 4.8 305.8 10.8 L 305.8 38.6 C 305.8 44.6 301.0 49.7 295.1 49.7 L 10.8 49.7 C 4.8 49.7 -0.2 44.2 -0.2 38.2 Z M 0.0 38.6 " fill="none" stroke="#DCDDE0" stroke-width="1.00" transform="matrix(1.00, 0.00, 0.00, -1.00, 1.7, 51.2)"></path><g><clipPath id="clip0x600000aaff60"><path d="M 0.6 1.8 L 308.8 1.8 L 308.8 51.2 L 0.6 51.2 Z M 0.6 1.8 "></path></clipPath><g clip-path="url(#clip0x600000aaff60)"><text xml:space="preserve" font-family="Helvetica-Light,Helvetica" font-size="24.0" fill="#FEFFFF" transform="matrix(1.00, 0.00, -0.00, -1.00, 38.2, 17.8)">1</text><text xml:space="preserve" font-family="Helvetica-Light,Helvetica" font-size="24.0" fill="#FEFFFF" transform="matrix(1.00, 0.00, -0.00, -1.00, 51.5, 17.8)">2</text><text xml:space="preserve" font-family="Helvetica-Light,Helvetica" font-size="24.0" fill="#FEFFFF" transform="matrix(1.00, 0.00, -0.00, -1.00, 64.9, 17.8)">3</text><text xml:space="preserve" font-family="Helvetica-Light,Helvetica" font-size="24.0" fill="#FEFFFF" transform="matrix(1.00, 0.00, -0.00, -1.00, 78.2, 17.8)">-</text><text xml:space="preserve" font-family="Helvetica-Light,Helvetica" font-size="24.0" fill="#FEFFFF" transform="matrix(1.00, 0.00, -0.00, -1.00, 86.2, 17.8)">a</text><text xml:space="preserve" font-family="Helvetica-Light,Helvetica" font-size="24.0" fill="#FEFFFF" transform="matrix(1.00, 0.00, -0.00, -1.00, 99.5, 17.8)">w</text><text xml:space="preserve" font-family="Helvetica-Light,Helvetica" font-size="24.0" fill="#FEFFFF" transform="matrix(1.00, 0.00, -0.00, -1.00, 116.9, 17.8)">e</text><text xml:space="preserve" font-family="Helvetica-Light,Helvetica" font-size="24.0" fill="#FEFFFF" transform="matrix(1.00, 0.00, -0.00, -1.00, 130.2, 17.8)">s</text><text xml:space="preserve" font-family="Helvetica-Light,Helvetica" font-size="24.0" fill="#FEFFFF" transform="matrix(1.00, 0.00, -0.00, -1.00, 142.2, 17.8)">o</text><text xml:space="preserve" font-family="Helvetica-Light,Helvetica" font-size="24.0" fill="#FEFFFF" transform="matrix(1.00, 0.00, -0.00, -1.00, 155.6, 17.8)">m</text><text xml:space="preserve" font-family="Helvetica-Light,Helvetica" font-size="24.0" fill="#FEFFFF" transform="matrix(1.00, 0.00, -0.00, -1.00, 175.5, 17.8)">e</text><text xml:space="preserve" font-family="Helvetica-Light,Helvetica" font-size="24.0" fill="#FEFFFF" transform="matrix(1.00, 0.00, -0.00, -1.00, 188.9, 17.8)">-</text><text xml:space="preserve" font-family="Helvetica-Light,Helvetica" font-size="24.0" fill="#FEFFFF" transform="matrix(1.00, 0.00, -0.00, -1.00, 196.9, 17.8)">f</text><text xml:space="preserve" font-family="Helvetica-Light,Helvetica" font-size="24.0" fill="#FEFFFF" transform="matrix(1.00, 0.00, -0.00, -1.00, 203.6, 17.8)">e</text><text xml:space="preserve" font-family="Helvetica-Light,Helvetica" font-size="24.0" fill="#FEFFFF" transform="matrix(1.00, 0.00, -0.00, -1.00, 216.9, 17.8)">a</text><text xml:space="preserve" font-family="Helvetica-Light,Helvetica" font-size="24.0" fill="#FEFFFF" transform="matrix(1.00, 0.00, -0.00, -1.00, 230.2, 17.8)">t</text><text xml:space="preserve" font-family="Helvetica-Light,Helvetica" font-size="24.0" fill="#FEFFFF" transform="matrix(1.00, 0.00, -0.00, -1.00, 236.9, 17.8)">u</text><text xml:space="preserve" font-family="Helvetica-Light,Helvetica" font-size="24.0" fill="#FEFFFF" transform="matrix(1.00, 0.00, -0.00, -1.00, 250.3, 17.8)">r</text><text xml:space="preserve" font-family="Helvetica-Light,Helvetica" font-size="24.0" fill="#FEFFFF" transform="matrix(1.00, 0.00, -0.00, -1.00, 257.8, 17.8)">e</text><text xml:space="preserve" font-family="Helvetica-Light,Helvetica" font-size="24.0" fill="#FEFFFF" transform="matrix(1.00, 0.00, -0.00, -1.00, 271.2, 17.8)"> </text></g></g></g></svg>