<?xml version="1.0" encoding="UTF-8" standalone="no"?><svg xmlns="http://www.w3.org/2000/svg" xmlns:xlink="http://www.w3.org/1999/xlink" clip-rule="evenodd" stroke-miterlimit="10" viewBox="0 0 244 114"><desc>SVG generated by Keynote</desc><defs></defs><g transform="matrix(1.00, 0.00, -0.00, -1.00, 0.0, 114.0)"><g><clipPath id="clip0x600000aaad40"><path d="M 238.9 0.5 L 155.7 61.5 L 160.5 68.0 L 243.6 6.9 Z M 238.9 0.5 "></path></clipPath><g clip-path="url(#clip0x600000aaad40)"><path d="M 0.0 0.0 L 101.2 0.0 " fill="none" stroke="#FEFFFE" stroke-width="6.00" transform="matrix(-0.81, 0.59, 0.59, 0.81, 240.5, 4.3)"></path></g></g><g><clipPath id="clip0x600000aaae00"><path d="M 0.4 61.5 L 217.0 61.5 L 217.0 113.9 L 0.4 113.9 Z M 0.4 61.5 "></path></clipPath><g clip-path="url(#clip0x600000aaae00)"><g opacity="0.71"><g><clipPath id="clip0x600000aab0a0"><path d="M 1.0 62.0 L 216.0 62.0 L 216.0 113.0 L 1.0 113.0 Z M 1.0 62.0 "></path></clipPath><g clip-path="url(#clip0x600000aab0a0)"><path d="M 1.5 74.0 L 1.5 101.6 C 1.5 107.5 6.7 112.5 12.7 112.5 L 204.7 112.5 C 210.6 112.5 215.5 107.5 215.5 101.6 L 215.5 73.8 C 215.5 67.8 210.6 62.5 204.7 62.5 L 12.7 62.5 C 6.7 62.5 1.5 68.0 1.5 74.0 Z M 1.9 73.8 " fill="#52575F"></path><path d="M -0.4 38.4 L -0.4 10.8 C -0.4 4.8 4.8 -0.1 10.8 -0.1 L 202.8 -0.1 C 208.8 -0.1 213.6 4.8 213.6 10.8 L 213.6 38.6 C 213.6 44.6 208.8 49.9 202.8 49.9 L 10.8 49.9 C 4.8 49.9 -0.4 44.4 -0.4 38.4 Z M 0.0 38.6 " fill="none" stroke="#DCDDE0" stroke-width="1.00" transform="matrix(1.00, 0.00, 0.00, -1.00, 1.9, 112.4)"></path></g></g></g></g></g><g opacity="0.71"><g><clipPath id="clip0x600000aab400"><path d="M 1.0 63.0 L 216.0 63.0 L 216.0 112.4 L 1.0 112.4 Z M 1.0 63.0 "></path></clipPath><g clip-path="url(#clip0x600000aab400)"><text xml:space="preserve" font-family="Helvetica-Light,Helvetica" font-size="24.0" fill="#FEFFFF" transform="matrix(1.00, 0.00, -0.00, -1.00, 32.0, 78.9)">o</text><text xml:space="preserve" font-family="Helvetica-Light,Helvetica" font-size="24.0" fill="#FEFFFF" transform="matrix(1.00, 0.00, -0.00, -1.00, 45.3, 78.9)">r</text><text xml:space="preserve" font-family="Helvetica-Light,Helvetica" font-size="24.0" fill="#FEFFFF" transform="matrix(1.00, 0.00, -0.00, -1.00, 53.3, 78.9)">i</text><text xml:space="preserve" font-family="Helvetica-Light,Helvetica" font-size="24.0" fill="#FEFFFF" transform="matrix(1.00, 0.00, -0.00, -1.00, 58.7, 78.9)">g</text><text xml:space="preserve" font-family="Helvetica-Light,Helvetica" font-size="24.0" fill="#FEFFFF" transform="matrix(1.00, 0.00, -0.00, -1.00, 73.3, 78.9)">i</text><text xml:space="preserve" font-family="Helvetica-Light,Helvetica" font-size="24.0" fill="#FEFFFF" transform="matrix(1.00, 0.00, -0.00, -1.00, 78.7, 78.9)">n</text><text xml:space="preserve" font-family="Helvetica-Light,Helvetica" font-size="24.0" fill="#FEFFFF" transform="matrix(1.00, 0.00, -0.00, -1.00, 92.0, 78.9)">/</text><text xml:space="preserve" font-family="Helvetica-Light,Helvetica" font-size="24.0" fill="#FEFFFF" transform="matrix(1.00, 0.00, -0.00, -1.00, 98.7, 78.9)">d</text><text xml:space="preserve" font-family="Helvetica-Light,Helvetica" font-size="24.0" fill="#FEFFFF" transform="matrix(1.00, 0.00, -0.00, -1.00, 113.3, 78.9)">e</text><text xml:space="preserve" font-family="Helvetica-Light,Helvetica" font-size="24.0" fill="#FEFFFF" transform="matrix(1.00, 0.00, -0.00, -1.00, 126.7, 78.9)">v</text><text xml:space="preserve" font-family="Helvetica-Light,Helvetica" font-size="24.0" fill="#FEFFFF" transform="matrix(1.00, 0.00, -0.00, -1.00, 138.7, 78.9)">e</text><text xml:space="preserve" font-family="Helvetica-Light,Helvetica" font-size="24.0" fill="#FEFFFF" transform="matrix(1.00, 0.00, -0.00, -1.00, 152.0, 78.9)">l</text><text xml:space="preserve" font-family="Helvetica-Light,Helvetica" font-size="24.0" fill="#FEFFFF" transform="matrix(1.00, 0.00, -0.00, -1.00, 157.4, 78.9)">o</text><text xml:space="preserve" font-family="Helvetica-Light,Helvetica" font-size="24.0" fill="#FEFFFF" transform="matrix(1.00, 0.00, -0.00, -1.00, 170.7, 78.9)">p</text></g></g></g></g></svg>