<?xml version="1.0" encoding="UTF-8" standalone="no"?><svg xmlns="http://www.w3.org/2000/svg" xmlns:xlink="http://www.w3.org/1999/xlink" clip-rule="evenodd" stroke-miterlimit="10" viewBox="0 0 351 240"><desc>SVG generated by Keynote</desc><defs></defs><g transform="matrix(1.00, 0.00, -0.00, -1.00, 0.0, 240.0)"><g><clipPath id="clip0x6000008b1fa0"><path d="M 0.5 10.2 L 56.7 10.2 L 56.7 0.2 L 0.5 0.2 Z M 0.5 10.2 "></path></clipPath><g clip-path="url(#clip0x6000008b1fa0)"><path d="M -0.5 0.2 L 54.5 0.2 " fill="none" stroke="#D35854" stroke-width="8.00" transform="matrix(1.00, 0.00, 0.00, -1.00, 1.5, 5.2)"></path></g></g><g><clipPath id="clip0x6000008b2120"><path d="M 35.6 131.7 L 91.8 131.7 L 91.8 121.7 L 35.6 121.7 Z M 35.6 131.7 "></path></clipPath><g clip-path="url(#clip0x6000008b2120)"><path d="M 0.4 -0.3 L 54.4 -0.3 " fill="none" stroke="#D35854" stroke-width="8.00" transform="matrix(1.00, 0.00, 0.00, -1.00, 36.6, 126.7)"></path></g></g><g><clipPath id="clip0x6000008b2360"><path d="M 294.1 239.6 L 350.3 239.6 L 350.3 229.6 L 294.1 229.6 Z M 294.1 239.6 "></path></clipPath><g clip-path="url(#clip0x6000008b2360)"><path d="M -0.1 -0.4 L 53.9 -0.4 " fill="none" stroke="#D35854" stroke-width="8.00" transform="matrix(1.00, 0.00, 0.00, -1.00, 295.1, 234.6)"></path></g></g></g></svg>