<?xml version="1.0" encoding="UTF-8" standalone="no"?><svg xmlns="http://www.w3.org/2000/svg" xmlns:xlink="http://www.w3.org/1999/xlink" clip-rule="evenodd" stroke-miterlimit="10" viewBox="0 0 1089 107"><desc>SVG generated by Keynote</desc><defs></defs><g transform="matrix(1.00, 0.00, -0.00, -1.00, 0.0, 107.0)"><text xml:space="preserve" font-family="Helvetica-Light,Helvetica" font-size="112.0" fill="#FEFFFF" transform="matrix(1.00, 0.00, -0.00, -1.00, -7.2, 24.8)">B</text><text xml:space="preserve" font-family="Helvetica-Light,Helvetica" font-size="112.0" fill="#FEFFFF" transform="matrix(1.00, 0.00, -0.00, -1.00, 67.5, 24.8)">e</text><text xml:space="preserve" font-family="Helvetica-Light,Helvetica" font-size="112.0" fill="#FEFFFF" transform="matrix(1.00, 0.00, -0.00, -1.00, 129.8, 24.8)">g</text><text xml:space="preserve" font-family="Helvetica-Light,Helvetica" font-size="112.0" fill="#FEFFFF" transform="matrix(1.00, 0.00, -0.00, -1.00, 198.2, 24.8)">i</text><text xml:space="preserve" font-family="Helvetica-Light,Helvetica" font-size="112.0" fill="#FEFFFF" transform="matrix(1.00, 0.00, -0.00, -1.00, 223.1, 24.8)">n</text><text xml:space="preserve" font-family="Helvetica-Light,Helvetica" font-size="112.0" fill="#FEFFFF" transform="matrix(1.00, 0.00, -0.00, -1.00, 285.4, 24.8)"> </text><text xml:space="preserve" font-family="Helvetica-Light,Helvetica" font-size="112.0" fill="#FEFFFF" transform="matrix(1.00, 0.00, -0.00, -1.00, 316.5, 24.8)">w</text><text xml:space="preserve" font-family="Helvetica-Light,Helvetica" font-size="112.0" fill="#FEFFFF" transform="matrix(1.00, 0.00, -0.00, -1.00, 397.4, 24.8)">i</text><text xml:space="preserve" font-family="Helvetica-Light,Helvetica" font-size="112.0" fill="#FEFFFF" transform="matrix(1.00, 0.00, -0.00, -1.00, 422.2, 24.8)">t</text><text xml:space="preserve" font-family="Helvetica-Light,Helvetica" font-size="112.0" fill="#FEFFFF" transform="matrix(1.00, 0.00, -0.00, -1.00, 453.4, 24.8)">h</text><text xml:space="preserve" font-family="Helvetica-Light,Helvetica" font-size="112.0" fill="#FEFFFF" transform="matrix(1.00, 0.00, -0.00, -1.00, 515.6, 24.8)"> </text><text xml:space="preserve" font-family="Helvetica-Bold,Helvetica" font-weight="bold" font-size="100.0" fill="#FEFFFF" transform="matrix(1.00, 0.00, -0.00, -1.00, 546.8, 24.8)">G</text><text xml:space="preserve" font-family="Helvetica-Bold,Helvetica" font-weight="bold" font-size="100.0" fill="#FEFFFF" transform="matrix(1.00, 0.00, -0.00, -1.00, 624.5, 24.8)">I</text><text xml:space="preserve" font-family="Helvetica-Bold,Helvetica" font-weight="bold" font-size="100.0" fill="#FEFFFF" transform="matrix(1.00, 0.00, -0.00, -1.00, 652.3, 24.8)">T</text><text xml:space="preserve" font-family="Helvetica-Bold,Helvetica" font-weight="bold" font-size="100.0" fill="#FEFFFF" transform="matrix(1.00, 0.00, -0.00, -1.00, 713.3, 24.8)"> </text><text xml:space="preserve" font-family="Helvetica-Bold,Helvetica" font-weight="bold" font-size="100.0" fill="#FEFFFF" transform="matrix(1.00, 0.00, -0.00, -1.00, 741.1, 24.8)">C</text><text xml:space="preserve" font-family="Helvetica-Bold,Helvetica" font-weight="bold" font-size="100.0" fill="#FEFFFF" transform="matrix(1.00, 0.00, -0.00, -1.00, 813.3, 24.8)">L</text><text xml:space="preserve" font-family="Helvetica-Bold,Helvetica" font-weight="bold" font-size="100.0" fill="#FEFFFF" transform="matrix(1.00, 0.00, -0.00, -1.00, 874.4, 24.8)">O</text><text xml:space="preserve" font-family="Helvetica-Bold,Helvetica" font-weight="bold" font-size="100.0" fill="#FEFFFF" transform="matrix(1.00, 0.00, -0.00, -1.00, 952.1, 24.8)">N</text><text xml:space="preserve" font-family="Helvetica-Bold,Helvetica" font-weight="bold" font-size="100.0" fill="#FEFFFF" transform="matrix(1.00, 0.00, -0.00, -1.00, 1024.3, 24.8)">E</text></g></svg>