<?xml version="1.0" encoding="UTF-8" standalone="no"?><svg xmlns="http://www.w3.org/2000/svg" xmlns:xlink="http://www.w3.org/1999/xlink" clip-rule="evenodd" stroke-miterlimit="10" viewBox="0 0 1238 56"><desc>SVG generated by Keynote</desc><defs></defs><g transform="matrix(1.00, 0.00, -0.00, -1.00, 0.0, 56.0)"><text xml:space="preserve" font-family="Helvetica-Light,Helvetica" font-size="38.1" fill="#FEFFFF" transform="matrix(1.00, 0.00, -0.00, -1.00, 0.0, 19.3)">•</text><text xml:space="preserve" font-family="Helvetica-Light,Helvetica" font-size="56.0" fill="#FEFFFF" transform="matrix(1.00, 0.00, -0.00, -1.00, 36.0, 12.9)"> </text><text xml:space="preserve" font-family="Helvetica-Light,Helvetica" font-size="56.0" fill="#FEFFFF" transform="matrix(1.00, 0.00, -0.00, -1.00, 51.6, 12.9)"> </text><text xml:space="preserve" font-family="Helvetica-Light,Helvetica" font-size="56.0" fill="#FEFFFF" transform="matrix(1.00, 0.00, -0.00, -1.00, 67.1, 12.9)"> </text><text xml:space="preserve" font-family="Helvetica-Light,Helvetica" font-size="56.0" fill="#FEFFFF" transform="matrix(1.00, 0.00, -0.00, -1.00, 82.7, 12.9)"> </text><text xml:space="preserve" font-family="Helvetica-Light,Helvetica" font-size="56.0" fill="#FEFFFF" transform="matrix(1.00, 0.00, -0.00, -1.00, 98.3, 12.9)"> </text><text xml:space="preserve" font-family="Helvetica-Light,Helvetica" font-size="56.0" fill="#FEFFFF" transform="matrix(1.00, 0.00, -0.00, -1.00, 113.8, 12.9)"> </text><text xml:space="preserve" font-family="Helvetica-Light,Helvetica" font-size="56.0" fill="#FEFFFF" transform="matrix(1.00, 0.00, -0.00, -1.00, 129.4, 12.9)"> </text><text xml:space="preserve" font-family="Helvetica-Light,Helvetica" font-size="56.0" fill="#FEFFFF" transform="matrix(1.00, 0.00, -0.00, -1.00, 145.0, 12.9)"> </text><text xml:space="preserve" font-family="Helvetica-Light,Helvetica" font-size="56.0" fill="#FEFFFF" transform="matrix(1.00, 0.00, -0.00, -1.00, 160.5, 12.9)"> </text><text xml:space="preserve" font-family="Helvetica-Light,Helvetica" font-size="56.0" fill="#FEFFFF" transform="matrix(1.00, 0.00, -0.00, -1.00, 176.1, 12.9)"> </text><text xml:space="preserve" font-family="Helvetica-Light,Helvetica" font-size="56.0" fill="#FEFFFF" transform="matrix(1.00, 0.00, -0.00, -1.00, 191.7, 12.9)"> </text><text xml:space="preserve" font-family="Helvetica-Light,Helvetica" font-size="56.0" fill="#FEFFFF" transform="matrix(1.00, 0.00, -0.00, -1.00, 207.2, 12.9)"> </text><text xml:space="preserve" font-family="Helvetica-Light,Helvetica" font-size="56.0" fill="#FEFFFF" transform="matrix(1.00, 0.00, -0.00, -1.00, 222.8, 12.9)"> </text><text xml:space="preserve" font-family="Helvetica-Light,Helvetica" font-size="56.0" fill="#FEFFFF" transform="matrix(1.00, 0.00, -0.00, -1.00, 238.4, 12.9)"> </text><text xml:space="preserve" font-family="Helvetica-Light,Helvetica" font-size="56.0" fill="#FEFFFF" transform="matrix(1.00, 0.00, -0.00, -1.00, 254.0, 12.9)"> </text><text xml:space="preserve" font-family="Helvetica-Light,Helvetica" font-size="56.0" fill="#FEFFFF" transform="matrix(1.00, 0.00, -0.00, -1.00, 269.5, 12.9)"> </text><text xml:space="preserve" font-family="Helvetica-Light,Helvetica" font-size="56.0" fill="#FEFFFF" transform="matrix(1.00, 0.00, -0.00, -1.00, 285.1, 12.9)"> </text><text xml:space="preserve" font-family="Helvetica-Light,Helvetica" font-size="56.0" fill="#FEFFFF" transform="matrix(1.00, 0.00, -0.00, -1.00, 300.7, 12.9)"> </text><text xml:space="preserve" font-family="Helvetica-Light,Helvetica" font-size="56.0" fill="#FEFFFF" transform="matrix(1.00, 0.00, -0.00, -1.00, 316.2, 12.9)"> </text><text xml:space="preserve" font-family="Helvetica-Light,Helvetica" font-size="56.0" fill="#FEFFFF" transform="matrix(1.00, 0.00, -0.00, -1.00, 331.8, 12.9)"> </text><text xml:space="preserve" font-family="Helvetica-Light,Helvetica" font-size="56.0" fill="#FEFFFF" transform="matrix(1.00, 0.00, -0.00, -1.00, 347.4, 12.9)"> </text><text xml:space="preserve" font-family="Helvetica-Light,Helvetica" font-size="56.0" fill="#FEFFFF" transform="matrix(1.00, 0.00, -0.00, -1.00, 362.9, 12.9)"> </text><text xml:space="preserve" font-family="Helvetica-Light,Helvetica" font-size="56.0" fill="#FEFFFF" transform="matrix(1.00, 0.00, -0.00, -1.00, 378.5, 12.9)"> </text><text xml:space="preserve" font-family="Helvetica-Light,Helvetica" font-size="56.0" fill="#FEFFFF" transform="matrix(1.00, 0.00, -0.00, -1.00, 394.1, 12.9)"> </text><text xml:space="preserve" font-family="Helvetica-Light,Helvetica" font-size="56.0" fill="#FEFFFF" transform="matrix(1.00, 0.00, -0.00, -1.00, 409.6, 12.9)"> </text><text xml:space="preserve" font-family="Helvetica-Light,Helvetica" font-size="56.0" fill="#FEFFFF" transform="matrix(1.00, 0.00, -0.00, -1.00, 425.2, 12.9)">t</text><text xml:space="preserve" font-family="Helvetica-Light,Helvetica" font-size="56.0" fill="#FEFFFF" transform="matrix(1.00, 0.00, -0.00, -1.00, 440.8, 12.9)">o</text><text xml:space="preserve" font-family="Helvetica-Light,Helvetica" font-size="56.0" fill="#FEFFFF" transform="matrix(1.00, 0.00, -0.00, -1.00, 471.9, 12.9)"> </text><text xml:space="preserve" font-family="Helvetica-Light,Helvetica" font-size="56.0" fill="#FEFFFF" transform="matrix(1.00, 0.00, -0.00, -1.00, 487.5, 12.9)">g</text><text xml:space="preserve" font-family="Helvetica-Light,Helvetica" font-size="56.0" fill="#FEFFFF" transform="matrix(1.00, 0.00, -0.00, -1.00, 521.7, 12.9)">e</text><text xml:space="preserve" font-family="Helvetica-Light,Helvetica" font-size="56.0" fill="#FEFFFF" transform="matrix(1.00, 0.00, -0.00, -1.00, 552.8, 12.9)">t</text><text xml:space="preserve" font-family="Helvetica-Light,Helvetica" font-size="56.0" fill="#FEFFFF" transform="matrix(1.00, 0.00, -0.00, -1.00, 568.4, 12.9)"> </text><text xml:space="preserve" font-family="Helvetica-Light,Helvetica" font-size="56.0" fill="#FEFFFF" transform="matrix(1.00, 0.00, -0.00, -1.00, 584.0, 12.9)">t</text><text xml:space="preserve" font-family="Helvetica-Light,Helvetica" font-size="56.0" fill="#FEFFFF" transform="matrix(1.00, 0.00, -0.00, -1.00, 599.5, 12.9)">h</text><text xml:space="preserve" font-family="Helvetica-Light,Helvetica" font-size="56.0" fill="#FEFFFF" transform="matrix(1.00, 0.00, -0.00, -1.00, 630.7, 12.9)">e</text><text xml:space="preserve" font-family="Helvetica-Light,Helvetica" font-size="56.0" fill="#FEFFFF" transform="matrix(1.00, 0.00, -0.00, -1.00, 661.8, 12.9)"> </text><text xml:space="preserve" font-family="Helvetica-Light,Helvetica" font-size="56.0" fill="#FEFFFF" transform="matrix(1.00, 0.00, -0.00, -1.00, 677.4, 12.9)">c</text><text xml:space="preserve" font-family="Helvetica-Light,Helvetica" font-size="56.0" fill="#FEFFFF" transform="matrix(1.00, 0.00, -0.00, -1.00, 708.5, 12.9)">o</text><text xml:space="preserve" font-family="Helvetica-Light,Helvetica" font-size="56.0" fill="#FEFFFF" transform="matrix(1.00, 0.00, -0.00, -1.00, 739.6, 12.9)">d</text><text xml:space="preserve" font-family="Helvetica-Light,Helvetica" font-size="56.0" fill="#FEFFFF" transform="matrix(1.00, 0.00, -0.00, -1.00, 773.9, 12.9)">e</text><text xml:space="preserve" font-family="Helvetica-Light,Helvetica" font-size="56.0" fill="#FEFFFF" transform="matrix(1.00, 0.00, -0.00, -1.00, 805.0, 12.9)">b</text><text xml:space="preserve" font-family="Helvetica-Light,Helvetica" font-size="56.0" fill="#FEFFFF" transform="matrix(1.00, 0.00, -0.00, -1.00, 839.2, 12.9)">a</text><text xml:space="preserve" font-family="Helvetica-Light,Helvetica" font-size="56.0" fill="#FEFFFF" transform="matrix(1.00, 0.00, -0.00, -1.00, 870.3, 12.9)">s</text><text xml:space="preserve" font-family="Helvetica-Light,Helvetica" font-size="56.0" fill="#FEFFFF" transform="matrix(1.00, 0.00, -0.00, -1.00, 898.3, 12.9)">e</text><text xml:space="preserve" font-family="Helvetica-Light,Helvetica" font-size="56.0" fill="#FEFFFF" transform="matrix(1.00, 0.00, -0.00, -1.00, 929.5, 12.9)"> </text><text xml:space="preserve" font-family="Helvetica-Light,Helvetica" font-size="56.0" fill="#FEFFFF" transform="matrix(1.00, 0.00, -0.00, -1.00, 945.0, 12.9)">f</text><text xml:space="preserve" font-family="Helvetica-Light,Helvetica" font-size="56.0" fill="#FEFFFF" transform="matrix(1.00, 0.00, -0.00, -1.00, 960.6, 12.9)">r</text><text xml:space="preserve" font-family="Helvetica-Light,Helvetica" font-size="56.0" fill="#FEFFFF" transform="matrix(1.00, 0.00, -0.00, -1.00, 978.3, 12.9)">o</text><text xml:space="preserve" font-family="Helvetica-Light,Helvetica" font-size="56.0" fill="#FEFFFF" transform="matrix(1.00, 0.00, -0.00, -1.00, 1009.4, 12.9)">m</text><text xml:space="preserve" font-family="Helvetica-Light,Helvetica" font-size="56.0" fill="#FEFFFF" transform="matrix(1.00, 0.00, -0.00, -1.00, 1056.0, 12.9)"> </text><text xml:space="preserve" font-family="Helvetica-Light,Helvetica" font-size="56.0" fill="#FEFFFF" transform="matrix(1.00, 0.00, -0.00, -1.00, 1071.6, 12.9)">G</text><text xml:space="preserve" font-family="Helvetica-Light,Helvetica" font-size="56.0" fill="#FEFFFF" transform="matrix(1.00, 0.00, -0.00, -1.00, 1115.2, 12.9)">i</text><text xml:space="preserve" font-family="Helvetica-Light,Helvetica" font-size="56.0" fill="#FEFFFF" transform="matrix(1.00, 0.00, -0.00, -1.00, 1127.6, 12.9)">t</text><text xml:space="preserve" font-family="Helvetica-Light,Helvetica" font-size="56.0" fill="#FEFFFF" transform="matrix(1.00, 0.00, -0.00, -1.00, 1143.2, 12.9)">h</text><text xml:space="preserve" font-family="Helvetica-Light,Helvetica" font-size="56.0" fill="#FEFFFF" transform="matrix(1.00, 0.00, -0.00, -1.00, 1174.3, 12.9)">u</text><text xml:space="preserve" font-family="Helvetica-Light,Helvetica" font-size="56.0" fill="#FEFFFF" transform="matrix(1.00, 0.00, -0.00, -1.00, 1205.4, 12.9)">b</text></g></svg>