<?xml version="1.0" encoding="UTF-8" standalone="no"?><svg xmlns="http://www.w3.org/2000/svg" xmlns:xlink="http://www.w3.org/1999/xlink" clip-rule="evenodd" stroke-miterlimit="10" viewBox="0 0 1408 74"><desc>SVG generated by Keynote</desc><defs></defs><g transform="matrix(1.00, 0.00, -0.00, -1.00, 0.0, 74.0)"><path d="M 2.0 72.0 L 1406.0 72.0 L 1406.0 2.0 L 2.0 2.0 Z M 1.9 72.4 " fill="#52575F"></path><g><clipPath id="clip0x6000018b2f00"><path d="M -9.7 -14.2 L 1417.7 -14.2 L 1417.7 84.0 L -9.7 84.0 Z M -9.7 -14.2 "></path></clipPath><g clip-path="url(#clip0x6000018b2f00)"><text xml:space="preserve" font-family="Monaco,Monaco" font-size="50.0" fill="#FEFFFF" transform="matrix(1.00, 0.00, -0.00, -1.00, 88.9, 18.1)">g</text><text xml:space="preserve" font-family="Monaco,Monaco" font-size="50.0" fill="#FEFFFF" transform="matrix(1.00, 0.00, -0.00, -1.00, 118.9, 18.1)">i</text><text xml:space="preserve" font-family="Monaco,Monaco" font-size="50.0" fill="#FEFFFF" transform="matrix(1.00, 0.00, -0.00, -1.00, 148.9, 18.1)">t</text><text xml:space="preserve" font-family="Monaco,Monaco" font-size="50.0" fill="#FEFFFF" transform="matrix(1.00, 0.00, -0.00, -1.00, 178.9, 18.1)"> </text><text xml:space="preserve" font-family="Monaco,Monaco" font-size="50.0" fill="#FEFFFF" transform="matrix(1.00, 0.00, -0.00, -1.00, 208.9, 18.1)">f</text><text xml:space="preserve" font-family="Monaco,Monaco" font-size="50.0" fill="#FEFFFF" transform="matrix(1.00, 0.00, -0.00, -1.00, 238.9, 18.1)">e</text><text xml:space="preserve" font-family="Monaco,Monaco" font-size="50.0" fill="#FEFFFF" transform="matrix(1.00, 0.00, -0.00, -1.00, 269.0, 18.1)">t</text><text xml:space="preserve" font-family="Monaco,Monaco" font-size="50.0" fill="#FEFFFF" transform="matrix(1.00, 0.00, -0.00, -1.00, 299.0, 18.1)">c</text><text xml:space="preserve" font-family="Monaco,Monaco" font-size="50.0" fill="#FEFFFF" transform="matrix(1.00, 0.00, -0.00, -1.00, 329.0, 18.1)">h</text><text xml:space="preserve" font-family="Monaco,Monaco" font-size="50.0" fill="#FEFFFF" transform="matrix(1.00, 0.00, -0.00, -1.00, 359.0, 18.1)"> </text><text xml:space="preserve" font-family="Monaco,Monaco" font-size="50.0" fill="#FEFFFF" transform="matrix(1.00, 0.00, -0.00, -1.00, 389.0, 18.1)">o</text><text xml:space="preserve" font-family="Monaco,Monaco" font-size="50.0" fill="#FEFFFF" transform="matrix(1.00, 0.00, -0.00, -1.00, 419.0, 18.1)">r</text><text xml:space="preserve" font-family="Monaco,Monaco" font-size="50.0" fill="#FEFFFF" transform="matrix(1.00, 0.00, -0.00, -1.00, 449.0, 18.1)">i</text><text xml:space="preserve" font-family="Monaco,Monaco" font-size="50.0" fill="#FEFFFF" transform="matrix(1.00, 0.00, -0.00, -1.00, 479.0, 18.1)">g</text><text xml:space="preserve" font-family="Monaco,Monaco" font-size="50.0" fill="#FEFFFF" transform="matrix(1.00, 0.00, -0.00, -1.00, 509.0, 18.1)">i</text><text xml:space="preserve" font-family="Monaco,Monaco" font-size="50.0" fill="#FEFFFF" transform="matrix(1.00, 0.00, -0.00, -1.00, 539.0, 18.1)">n</text><text xml:space="preserve" font-family="Monaco,Monaco" font-size="50.0" fill="#FEFFFF" transform="matrix(1.00, 0.00, -0.00, -1.00, 569.1, 18.1)">;</text><text xml:space="preserve" font-family="Monaco,Monaco" font-size="50.0" fill="#FEFFFF" transform="matrix(1.00, 0.00, -0.00, -1.00, 599.1, 18.1)"> </text><text xml:space="preserve" font-family="Monaco,Monaco" font-size="50.0" fill="#FEFFFF" transform="matrix(1.00, 0.00, -0.00, -1.00, 629.1, 18.1)">g</text><text xml:space="preserve" font-family="Monaco,Monaco" font-size="50.0" fill="#FEFFFF" transform="matrix(1.00, 0.00, -0.00, -1.00, 659.1, 18.1)">i</text><text xml:space="preserve" font-family="Monaco,Monaco" font-size="50.0" fill="#FEFFFF" transform="matrix(1.00, 0.00, -0.00, -1.00, 689.1, 18.1)">t</text><text xml:space="preserve" font-family="Monaco,Monaco" font-size="50.0" fill="#FEFFFF" transform="matrix(1.00, 0.00, -0.00, -1.00, 719.1, 18.1)"> </text><text xml:space="preserve" font-family="Monaco,Monaco" font-size="50.0" fill="#FEFFFF" transform="matrix(1.00, 0.00, -0.00, -1.00, 749.1, 18.1)">m</text><text xml:space="preserve" font-family="Monaco,Monaco" font-size="50.0" fill="#FEFFFF" transform="matrix(1.00, 0.00, -0.00, -1.00, 779.1, 18.1)">e</text><text xml:space="preserve" font-family="Monaco,Monaco" font-size="50.0" fill="#FEFFFF" transform="matrix(1.00, 0.00, -0.00, -1.00, 809.1, 18.1)">r</text><text xml:space="preserve" font-family="Monaco,Monaco" font-size="50.0" fill="#FEFFFF" transform="matrix(1.00, 0.00, -0.00, -1.00, 839.1, 18.1)">g</text><text xml:space="preserve" font-family="Monaco,Monaco" font-size="50.0" fill="#FEFFFF" transform="matrix(1.00, 0.00, -0.00, -1.00, 869.2, 18.1)">e</text><text xml:space="preserve" font-family="Monaco,Monaco" font-size="50.0" fill="#FEFFFF" transform="matrix(1.00, 0.00, -0.00, -1.00, 899.2, 18.1)"> </text><text xml:space="preserve" font-family="Monaco,Monaco" font-size="50.0" fill="#FEFFFF" transform="matrix(1.00, 0.00, -0.00, -1.00, 929.2, 18.1)">o</text><text xml:space="preserve" font-family="Monaco,Monaco" font-size="50.0" fill="#FEFFFF" transform="matrix(1.00, 0.00, -0.00, -1.00, 959.2, 18.1)">r</text><text xml:space="preserve" font-family="Monaco,Monaco" font-size="50.0" fill="#FEFFFF" transform="matrix(1.00, 0.00, -0.00, -1.00, 989.2, 18.1)">i</text><text xml:space="preserve" font-family="Monaco,Monaco" font-size="50.0" fill="#FEFFFF" transform="matrix(1.00, 0.00, -0.00, -1.00, 1019.2, 18.1)">g</text><text xml:space="preserve" font-family="Monaco,Monaco" font-size="50.0" fill="#FEFFFF" transform="matrix(1.00, 0.00, -0.00, -1.00, 1049.2, 18.1)">i</text><text xml:space="preserve" font-family="Monaco,Monaco" font-size="50.0" fill="#FEFFFF" transform="matrix(1.00, 0.00, -0.00, -1.00, 1079.2, 18.1)">n</text><text xml:space="preserve" font-family="Monaco,Monaco" font-size="50.0" fill="#FEFFFF" transform="matrix(1.00, 0.00, -0.00, -1.00, 1109.2, 18.1)">/</text><text xml:space="preserve" font-family="Monaco,Monaco" font-size="50.0" fill="#FEFFFF" transform="matrix(1.00, 0.00, -0.00, -1.00, 1139.2, 18.1)">m</text><text xml:space="preserve" font-family="Monaco,Monaco" font-size="50.0" fill="#FEFFFF" transform="matrix(1.00, 0.00, -0.00, -1.00, 1169.3, 18.1)">a</text><text xml:space="preserve" font-family="Monaco,Monaco" font-size="50.0" fill="#FEFFFF" transform="matrix(1.00, 0.00, -0.00, -1.00, 1199.3, 18.1)">s</text><text xml:space="preserve" font-family="Monaco,Monaco" font-size="50.0" fill="#FEFFFF" transform="matrix(1.00, 0.00, -0.00, -1.00, 1229.3, 18.1)">t</text><text xml:space="preserve" font-family="Monaco,Monaco" font-size="50.0" fill="#FEFFFF" transform="matrix(1.00, 0.00, -0.00, -1.00, 1259.3, 18.1)">e</text><text xml:space="preserve" font-family="Monaco,Monaco" font-size="50.0" fill="#FEFFFF" transform="matrix(1.00, 0.00, -0.00, -1.00, 1289.3, 18.1)">r</text></g></g></g></svg>