<?xml version="1.0" encoding="UTF-8" standalone="no"?><svg xmlns="http://www.w3.org/2000/svg" xmlns:xlink="http://www.w3.org/1999/xlink" clip-rule="evenodd" stroke-miterlimit="10" viewBox="0 0 115 117"><desc>SVG generated by Keynote</desc><defs></defs><g transform="matrix(1.00, 0.00, -0.00, -1.00, 0.0, 117.0)"><g><clipPath id="clip0x600000ea88e0"><path d="M 56.1 0.6 L 56.1 73.4 L 64.1 73.4 L 64.1 0.6 Z M 56.1 0.6 "></path></clipPath><g clip-path="url(#clip0x600000ea88e0)"><path d="M 0.4 -0.1 L 70.4 -0.1 " fill="none" stroke="#FEFFFE" stroke-width="6.00" transform="matrix(0.00, 1.00, 1.00, 0.00, 60.1, 1.6)"></path></g></g><g><clipPath id="clip0x600000ea90c0"><path d="M 1.0 63.9 L 114.4 63.9 L 114.4 116.3 L 1.0 116.3 Z M 1.0 63.9 "></path></clipPath><g clip-path="url(#clip0x600000ea90c0)"><path d="M 2.5 76.0 L 2.5 104.0 C 2.5 110.0 7.3 114.5 13.3 114.5 L 102.1 114.5 C 108.1 114.5 112.5 110.0 112.5 104.0 L 112.5 76.2 C 112.5 70.2 108.1 65.5 102.1 65.5 L 13.3 65.5 C 7.3 65.5 2.5 70.0 2.5 76.0 Z M 2.5 76.2 " fill="#8881F0"></path><path d="M 0.0 38.8 L 0.0 10.8 C 0.0 4.8 4.8 0.3 10.8 0.3 L 99.6 0.3 C 105.6 0.3 110.0 4.8 110.0 10.8 L 110.0 38.6 C 110.0 44.6 105.6 49.3 99.6 49.3 L 10.8 49.3 C 4.8 49.3 0.0 44.8 0.0 38.8 Z M 0.0 38.6 " fill="none" stroke="#FEFFFE" stroke-width="1.00" transform="matrix(1.00, 0.00, 0.00, -1.00, 2.5, 114.8)"></path></g></g><g><clipPath id="clip0x600000ea8b20"><path d="M 1.3 65.4 L 114.1 65.4 L 114.1 114.8 L 1.3 114.8 Z M 1.3 65.4 "></path></clipPath><g clip-path="url(#clip0x600000ea8b20)"><text xml:space="preserve" font-family="Helvetica-Light,Helvetica" font-size="24.0" fill="#FEFFFF" transform="matrix(1.00, 0.00, -0.00, -1.00, 14.3, 81.3)">d</text><text xml:space="preserve" font-family="Helvetica-Light,Helvetica" font-size="24.0" fill="#FEFFFF" transform="matrix(1.00, 0.00, -0.00, -1.00, 29.0, 81.3)">e</text><text xml:space="preserve" font-family="Helvetica-Light,Helvetica" font-size="24.0" fill="#FEFFFF" transform="matrix(1.00, 0.00, -0.00, -1.00, 42.4, 81.3)">v</text><text xml:space="preserve" font-family="Helvetica-Light,Helvetica" font-size="24.0" fill="#FEFFFF" transform="matrix(1.00, 0.00, -0.00, -1.00, 54.4, 81.3)">e</text><text xml:space="preserve" font-family="Helvetica-Light,Helvetica" font-size="24.0" fill="#FEFFFF" transform="matrix(1.00, 0.00, -0.00, -1.00, 67.7, 81.3)">l</text><text xml:space="preserve" font-family="Helvetica-Light,Helvetica" font-size="24.0" fill="#FEFFFF" transform="matrix(1.00, 0.00, -0.00, -1.00, 73.0, 81.3)">o</text><text xml:space="preserve" font-family="Helvetica-Light,Helvetica" font-size="24.0" fill="#FEFFFF" transform="matrix(1.00, 0.00, -0.00, -1.00, 86.4, 81.3)">p</text></g></g></g></svg>