<?xml version="1.0" encoding="UTF-8" standalone="no"?><svg xmlns="http://www.w3.org/2000/svg" xmlns:xlink="http://www.w3.org/1999/xlink" clip-rule="evenodd" stroke-miterlimit="10" viewBox="0 0 782 45"><desc>SVG generated by Keynote</desc><defs></defs><g transform="matrix(1.00, 0.00, -0.00, -1.00, 0.0, 45.0)"><text xml:space="preserve" font-family="Helvetica-Light,Helvetica" font-size="41.8" fill="#FEFFFF" transform="matrix(1.00, 0.00, -0.00, -1.00, 0.0, 12.8)">•</text><text xml:space="preserve" font-family="Helvetica-Light,Helvetica" font-size="44.0" fill="#FEFFFF" transform="matrix(1.00, 0.00, -0.00, -1.00, 42.0, 11.8)">Y</text><text xml:space="preserve" font-family="Helvetica-Light,Helvetica" font-size="44.0" fill="#FEFFFF" transform="matrix(1.00, 0.00, -0.00, -1.00, 64.8, 11.8)">o</text><text xml:space="preserve" font-family="Helvetica-Light,Helvetica" font-size="44.0" fill="#FEFFFF" transform="matrix(1.00, 0.00, -0.00, -1.00, 89.3, 11.8)">u</text><text xml:space="preserve" font-family="Helvetica-Light,Helvetica" font-size="44.0" fill="#FEFFFF" transform="matrix(1.00, 0.00, -0.00, -1.00, 113.8, 11.8)"> </text><text xml:space="preserve" font-family="Helvetica-Light,Helvetica" font-size="44.0" fill="#FEFFFF" transform="matrix(1.00, 0.00, -0.00, -1.00, 126.0, 11.8)">c</text><text xml:space="preserve" font-family="Helvetica-Light,Helvetica" font-size="44.0" fill="#FEFFFF" transform="matrix(1.00, 0.00, -0.00, -1.00, 150.5, 11.8)">a</text><text xml:space="preserve" font-family="Helvetica-Light,Helvetica" font-size="44.0" fill="#FEFFFF" transform="matrix(1.00, 0.00, -0.00, -1.00, 174.9, 11.8)">n</text><text xml:space="preserve" font-family="Helvetica-Light,Helvetica" font-size="44.0" fill="#FEFFFF" transform="matrix(1.00, 0.00, -0.00, -1.00, 199.4, 11.8)"> </text><text xml:space="preserve" font-family="Helvetica-Light,Helvetica" font-size="44.0" fill="#FEFFFF" transform="matrix(1.00, 0.00, -0.00, -1.00, 211.6, 11.8)">m</text><text xml:space="preserve" font-family="Helvetica-Light,Helvetica" font-size="44.0" fill="#FEFFFF" transform="matrix(1.00, 0.00, -0.00, -1.00, 248.3, 11.8)">o</text><text xml:space="preserve" font-family="Helvetica-Light,Helvetica" font-size="44.0" fill="#FEFFFF" transform="matrix(1.00, 0.00, -0.00, -1.00, 272.7, 11.8)">v</text><text xml:space="preserve" font-family="Helvetica-Light,Helvetica" font-size="44.0" fill="#FEFFFF" transform="matrix(1.00, 0.00, -0.00, -1.00, 294.7, 11.8)">e</text><text xml:space="preserve" font-family="Helvetica-Light,Helvetica" font-size="44.0" fill="#FEFFFF" transform="matrix(1.00, 0.00, -0.00, -1.00, 319.2, 11.8)"> </text><text xml:space="preserve" font-family="Helvetica-Light,Helvetica" font-size="44.0" fill="#FEFFFF" transform="matrix(1.00, 0.00, -0.00, -1.00, 331.4, 11.8)">t</text><text xml:space="preserve" font-family="Helvetica-Light,Helvetica" font-size="44.0" fill="#FEFFFF" transform="matrix(1.00, 0.00, -0.00, -1.00, 343.7, 11.8)">o</text><text xml:space="preserve" font-family="Helvetica-Light,Helvetica" font-size="44.0" fill="#FEFFFF" transform="matrix(1.00, 0.00, -0.00, -1.00, 368.1, 11.8)"> </text><text xml:space="preserve" font-family="Helvetica-Light,Helvetica" font-size="44.0" fill="#FEFFFF" transform="matrix(1.00, 0.00, -0.00, -1.00, 380.4, 11.8)">a</text><text xml:space="preserve" font-family="Helvetica-Light,Helvetica" font-size="44.0" fill="#FEFFFF" transform="matrix(1.00, 0.00, -0.00, -1.00, 404.8, 11.8)"> </text><text xml:space="preserve" font-family="Helvetica-Light,Helvetica" font-size="44.0" fill="#FEFFFF" transform="matrix(1.00, 0.00, -0.00, -1.00, 417.1, 11.8)">c</text><text xml:space="preserve" font-family="Helvetica-Light,Helvetica" font-size="44.0" fill="#FEFFFF" transform="matrix(1.00, 0.00, -0.00, -1.00, 441.5, 11.8)">o</text><text xml:space="preserve" font-family="Helvetica-Light,Helvetica" font-size="44.0" fill="#FEFFFF" transform="matrix(1.00, 0.00, -0.00, -1.00, 466.0, 11.8)">m</text><text xml:space="preserve" font-family="Helvetica-Light,Helvetica" font-size="44.0" fill="#FEFFFF" transform="matrix(1.00, 0.00, -0.00, -1.00, 502.6, 11.8)">m</text><text xml:space="preserve" font-family="Helvetica-Light,Helvetica" font-size="44.0" fill="#FEFFFF" transform="matrix(1.00, 0.00, -0.00, -1.00, 539.3, 11.8)">i</text><text xml:space="preserve" font-family="Helvetica-Light,Helvetica" font-size="44.0" fill="#FEFFFF" transform="matrix(1.00, 0.00, -0.00, -1.00, 549.1, 11.8)">t</text><text xml:space="preserve" font-family="Helvetica-Light,Helvetica" font-size="44.0" fill="#FEFFFF" transform="matrix(1.00, 0.00, -0.00, -1.00, 561.3, 11.8)"> </text><text xml:space="preserve" font-family="Helvetica-Light,Helvetica" font-size="44.0" fill="#FEFFFF" transform="matrix(1.00, 0.00, -0.00, -1.00, 573.5, 11.8)">b</text><text xml:space="preserve" font-family="Helvetica-Light,Helvetica" font-size="44.0" fill="#FEFFFF" transform="matrix(1.00, 0.00, -0.00, -1.00, 600.4, 11.8)">y</text><text xml:space="preserve" font-family="Helvetica-Light,Helvetica" font-size="44.0" fill="#FEFFFF" transform="matrix(1.00, 0.00, -0.00, -1.00, 622.4, 11.8)"> </text><text xml:space="preserve" font-family="Helvetica-Light,Helvetica" font-size="44.0" fill="#FEFFFF" transform="matrix(1.00, 0.00, -0.00, -1.00, 634.6, 11.8)">r</text><text xml:space="preserve" font-family="Helvetica-Light,Helvetica" font-size="44.0" fill="#FEFFFF" transform="matrix(1.00, 0.00, -0.00, -1.00, 649.3, 11.8)">u</text><text xml:space="preserve" font-family="Helvetica-Light,Helvetica" font-size="44.0" fill="#FEFFFF" transform="matrix(1.00, 0.00, -0.00, -1.00, 673.8, 11.8)">n</text><text xml:space="preserve" font-family="Helvetica-Light,Helvetica" font-size="44.0" fill="#FEFFFF" transform="matrix(1.00, 0.00, -0.00, -1.00, 698.2, 11.8)">n</text><text xml:space="preserve" font-family="Helvetica-Light,Helvetica" font-size="44.0" fill="#FEFFFF" transform="matrix(1.00, 0.00, -0.00, -1.00, 722.7, 11.8)">i</text><text xml:space="preserve" font-family="Helvetica-Light,Helvetica" font-size="44.0" fill="#FEFFFF" transform="matrix(1.00, 0.00, -0.00, -1.00, 732.4, 11.8)">n</text><text xml:space="preserve" font-family="Helvetica-Light,Helvetica" font-size="44.0" fill="#FEFFFF" transform="matrix(1.00, 0.00, -0.00, -1.00, 756.9, 11.8)">g</text></g></svg>