<?xml version="1.0" encoding="UTF-8" standalone="no"?><svg xmlns="http://www.w3.org/2000/svg" xmlns:xlink="http://www.w3.org/1999/xlink" clip-rule="evenodd" stroke-miterlimit="10" viewBox="0 0 1920 1080"><desc>SVG generated by Keynote</desc><defs></defs><g transform="matrix(1.00, 0.00, -0.00, -1.00, 0.0, 1080.0)"><path d="M 0.0 1080.0 L 1920.0 1080.0 L 1920.0 0.0 L 0.0 0.0 Z M 0.0 1080.0 " fill="#000000"></path><text xml:space="preserve" font-family="Helvetica-Light,Helvetica" font-size="112.0" fill="#FEFFFF" transform="matrix(1.00, 0.00, -0.00, -1.00, 533.7, 920.8)">M</text><text xml:space="preserve" font-family="Helvetica-Light,Helvetica" font-size="112.0" fill="#FEFFFF" transform="matrix(1.00, 0.00, -0.00, -1.00, 627.0, 920.8)">a</text><text xml:space="preserve" font-family="Helvetica-Light,Helvetica" font-size="112.0" fill="#FEFFFF" transform="matrix(1.00, 0.00, -0.00, -1.00, 689.2, 920.8)">k</text><text xml:space="preserve" font-family="Helvetica-Light,Helvetica" font-size="112.0" fill="#FEFFFF" transform="matrix(1.00, 0.00, -0.00, -1.00, 745.2, 920.8)">i</text><text xml:space="preserve" font-family="Helvetica-Light,Helvetica" font-size="112.0" fill="#FEFFFF" transform="matrix(1.00, 0.00, -0.00, -1.00, 770.1, 920.8)">n</text><text xml:space="preserve" font-family="Helvetica-Light,Helvetica" font-size="112.0" fill="#FEFFFF" transform="matrix(1.00, 0.00, -0.00, -1.00, 832.4, 920.8)">g</text><text xml:space="preserve" font-family="Helvetica-Light,Helvetica" font-size="112.0" fill="#FEFFFF" transform="matrix(1.00, 0.00, -0.00, -1.00, 900.8, 920.8)"> </text><text xml:space="preserve" font-family="Helvetica-Light,Helvetica" font-size="112.0" fill="#FEFFFF" transform="matrix(1.00, 0.00, -0.00, -1.00, 931.9, 920.8)">C</text><text xml:space="preserve" font-family="Helvetica-Light,Helvetica" font-size="112.0" fill="#FEFFFF" transform="matrix(1.00, 0.00, -0.00, -1.00, 1012.8, 920.8)">h</text><text xml:space="preserve" font-family="Helvetica-Light,Helvetica" font-size="112.0" fill="#FEFFFF" transform="matrix(1.00, 0.00, -0.00, -1.00, 1075.1, 920.8)">a</text><text xml:space="preserve" font-family="Helvetica-Light,Helvetica" font-size="112.0" fill="#FEFFFF" transform="matrix(1.00, 0.00, -0.00, -1.00, 1137.4, 920.8)">n</text><text xml:space="preserve" font-family="Helvetica-Light,Helvetica" font-size="112.0" fill="#FEFFFF" transform="matrix(1.00, 0.00, -0.00, -1.00, 1199.6, 920.8)">g</text><text xml:space="preserve" font-family="Helvetica-Light,Helvetica" font-size="112.0" fill="#FEFFFF" transform="matrix(1.00, 0.00, -0.00, -1.00, 1268.1, 920.8)">e</text><text xml:space="preserve" font-family="Helvetica-Light,Helvetica" font-size="112.0" fill="#FEFFFF" transform="matrix(1.00, 0.00, -0.00, -1.00, 1330.3, 920.8)">s</text><image xlink:href="04719E7083B27D2654AB0E7A81798C88.png" width="1548.00" height="639.00" transform="matrix(0.89, 0.00, -0.00, -0.89, 274.0, 799.0)"></image><text xml:space="preserve" font-family="Helvetica-Light,Helvetica" font-size="40.0" fill="#A6AAA8" transform="matrix(1.00, 0.00, -0.00, -1.00, 247.6, 100.8)">h</text><text xml:space="preserve" font-family="Helvetica-Light,Helvetica" font-size="40.0" fill="#A6AAA8" transform="matrix(1.00, 0.00, -0.00, -1.00, 269.8, 100.8)">t</text><text xml:space="preserve" font-family="Helvetica-Light,Helvetica" font-size="40.0" fill="#A6AAA8" transform="matrix(1.00, 0.00, -0.00, -1.00, 280.9, 100.8)">t</text><text xml:space="preserve" font-family="Helvetica-Light,Helvetica" font-size="40.0" fill="#A6AAA8" transform="matrix(1.00, 0.00, -0.00, -1.00, 292.1, 100.8)">p</text><text xml:space="preserve" font-family="Helvetica-Light,Helvetica" font-size="40.0" fill="#A6AAA8" transform="matrix(1.00, 0.00, -0.00, -1.00, 316.5, 100.8)">:</text><text xml:space="preserve" font-family="Helvetica-Light,Helvetica" font-size="40.0" fill="#A6AAA8" transform="matrix(1.00, 0.00, -0.00, -1.00, 327.6, 100.8)">/</text><text xml:space="preserve" font-family="Helvetica-Light,Helvetica" font-size="40.0" fill="#A6AAA8" transform="matrix(1.00, 0.00, -0.00, -1.00, 338.7, 100.8)">/</text><text xml:space="preserve" font-family="Helvetica-Light,Helvetica" font-size="40.0" fill="#A6AAA8" transform="matrix(1.00, 0.00, -0.00, -1.00, 349.9, 100.8)">g</text><text xml:space="preserve" font-family="Helvetica-Light,Helvetica" font-size="40.0" fill="#A6AAA8" transform="matrix(1.00, 0.00, -0.00, -1.00, 374.3, 100.8)">i</text><text xml:space="preserve" font-family="Helvetica-Light,Helvetica" font-size="40.0" fill="#A6AAA8" transform="matrix(1.00, 0.00, -0.00, -1.00, 383.2, 100.8)">t</text><text xml:space="preserve" font-family="Helvetica-Light,Helvetica" font-size="40.0" fill="#A6AAA8" transform="matrix(1.00, 0.00, -0.00, -1.00, 394.3, 100.8)">-</text><text xml:space="preserve" font-family="Helvetica-Light,Helvetica" font-size="40.0" fill="#A6AAA8" transform="matrix(1.00, 0.00, -0.00, -1.00, 407.6, 100.8)">s</text><text xml:space="preserve" font-family="Helvetica-Light,Helvetica" font-size="40.0" fill="#A6AAA8" transform="matrix(1.00, 0.00, -0.00, -1.00, 427.6, 100.8)">c</text><text xml:space="preserve" font-family="Helvetica-Light,Helvetica" font-size="40.0" fill="#A6AAA8" transform="matrix(1.00, 0.00, -0.00, -1.00, 449.9, 100.8)">m</text><text xml:space="preserve" font-family="Helvetica-Light,Helvetica" font-size="40.0" fill="#A6AAA8" transform="matrix(1.00, 0.00, -0.00, -1.00, 483.2, 100.8)">.</text><text xml:space="preserve" font-family="Helvetica-Light,Helvetica" font-size="40.0" fill="#A6AAA8" transform="matrix(1.00, 0.00, -0.00, -1.00, 494.3, 100.8)">c</text><text xml:space="preserve" font-family="Helvetica-Light,Helvetica" font-size="40.0" fill="#A6AAA8" transform="matrix(1.00, 0.00, -0.00, -1.00, 516.5, 100.8)">o</text><text xml:space="preserve" font-family="Helvetica-Light,Helvetica" font-size="40.0" fill="#A6AAA8" transform="matrix(1.00, 0.00, -0.00, -1.00, 538.8, 100.8)">m</text><text xml:space="preserve" font-family="Helvetica-Light,Helvetica" font-size="40.0" fill="#A6AAA8" transform="matrix(1.00, 0.00, -0.00, -1.00, 572.1, 100.8)">/</text><text xml:space="preserve" font-family="Helvetica-Light,Helvetica" font-size="40.0" fill="#A6AAA8" transform="matrix(1.00, 0.00, -0.00, -1.00, 583.2, 100.8)">b</text><text xml:space="preserve" font-family="Helvetica-Light,Helvetica" font-size="40.0" fill="#A6AAA8" transform="matrix(1.00, 0.00, -0.00, -1.00, 607.7, 100.8)">o</text><text xml:space="preserve" font-family="Helvetica-Light,Helvetica" font-size="40.0" fill="#A6AAA8" transform="matrix(1.00, 0.00, -0.00, -1.00, 629.9, 100.8)">o</text><text xml:space="preserve" font-family="Helvetica-Light,Helvetica" font-size="40.0" fill="#A6AAA8" transform="matrix(1.00, 0.00, -0.00, -1.00, 652.1, 100.8)">k</text><text xml:space="preserve" font-family="Helvetica-Light,Helvetica" font-size="40.0" fill="#A6AAA8" transform="matrix(1.00, 0.00, -0.00, -1.00, 672.1, 100.8)">/</text><text xml:space="preserve" font-family="Helvetica-Light,Helvetica" font-size="40.0" fill="#A6AAA8" transform="matrix(1.00, 0.00, -0.00, -1.00, 683.3, 100.8)">e</text><text xml:space="preserve" font-family="Helvetica-Light,Helvetica" font-size="40.0" fill="#A6AAA8" transform="matrix(1.00, 0.00, -0.00, -1.00, 705.5, 100.8)">n</text><text xml:space="preserve" font-family="Helvetica-Light,Helvetica" font-size="40.0" fill="#A6AAA8" transform="matrix(1.00, 0.00, -0.00, -1.00, 727.7, 100.8)">/</text><text xml:space="preserve" font-family="Helvetica-Light,Helvetica" font-size="40.0" fill="#A6AAA8" transform="matrix(1.00, 0.00, -0.00, -1.00, 738.9, 100.8)">v</text><text xml:space="preserve" font-family="Helvetica-Light,Helvetica" font-size="40.0" fill="#A6AAA8" transform="matrix(1.00, 0.00, -0.00, -1.00, 758.9, 100.8)">2</text><text xml:space="preserve" font-family="Helvetica-Light,Helvetica" font-size="40.0" fill="#A6AAA8" transform="matrix(1.00, 0.00, -0.00, -1.00, 781.1, 100.8)">/</text><text xml:space="preserve" font-family="Helvetica-Light,Helvetica" font-size="40.0" fill="#A6AAA8" transform="matrix(1.00, 0.00, -0.00, -1.00, 792.2, 100.8)">G</text><text xml:space="preserve" font-family="Helvetica-Light,Helvetica" font-size="40.0" fill="#A6AAA8" transform="matrix(1.00, 0.00, -0.00, -1.00, 823.3, 100.8)">i</text><text xml:space="preserve" font-family="Helvetica-Light,Helvetica" font-size="40.0" fill="#A6AAA8" transform="matrix(1.00, 0.00, -0.00, -1.00, 832.2, 100.8)">t</text><text xml:space="preserve" font-family="Helvetica-Light,Helvetica" font-size="40.0" fill="#A6AAA8" transform="matrix(1.00, 0.00, -0.00, -1.00, 843.3, 100.8)">-</text><text xml:space="preserve" font-family="Helvetica-Light,Helvetica" font-size="40.0" fill="#A6AAA8" transform="matrix(1.00, 0.00, -0.00, -1.00, 856.7, 100.8)">B</text><text xml:space="preserve" font-family="Helvetica-Light,Helvetica" font-size="40.0" fill="#A6AAA8" transform="matrix(1.00, 0.00, -0.00, -1.00, 883.3, 100.8)">a</text><text xml:space="preserve" font-family="Helvetica-Light,Helvetica" font-size="40.0" fill="#A6AAA8" transform="matrix(1.00, 0.00, -0.00, -1.00, 905.6, 100.8)">s</text><text xml:space="preserve" font-family="Helvetica-Light,Helvetica" font-size="40.0" fill="#A6AAA8" transform="matrix(1.00, 0.00, -0.00, -1.00, 925.6, 100.8)">i</text><text xml:space="preserve" font-family="Helvetica-Light,Helvetica" font-size="40.0" fill="#A6AAA8" transform="matrix(1.00, 0.00, -0.00, -1.00, 934.5, 100.8)">c</text><text xml:space="preserve" font-family="Helvetica-Light,Helvetica" font-size="40.0" fill="#A6AAA8" transform="matrix(1.00, 0.00, -0.00, -1.00, 956.7, 100.8)">s</text><text xml:space="preserve" font-family="Helvetica-Light,Helvetica" font-size="40.0" fill="#A6AAA8" transform="matrix(1.00, 0.00, -0.00, -1.00, 976.7, 100.8)">-</text><text xml:space="preserve" font-family="Helvetica-Light,Helvetica" font-size="40.0" fill="#A6AAA8" transform="matrix(1.00, 0.00, -0.00, -1.00, 990.0, 100.8)">R</text><text xml:space="preserve" font-family="Helvetica-Light,Helvetica" font-size="40.0" fill="#A6AAA8" transform="matrix(1.00, 0.00, -0.00, -1.00, 1016.7, 100.8)">e</text><text xml:space="preserve" font-family="Helvetica-Light,Helvetica" font-size="40.0" fill="#A6AAA8" transform="matrix(1.00, 0.00, -0.00, -1.00, 1038.9, 100.8)">c</text><text xml:space="preserve" font-family="Helvetica-Light,Helvetica" font-size="40.0" fill="#A6AAA8" transform="matrix(1.00, 0.00, -0.00, -1.00, 1061.2, 100.8)">o</text><text xml:space="preserve" font-family="Helvetica-Light,Helvetica" font-size="40.0" fill="#A6AAA8" transform="matrix(1.00, 0.00, -0.00, -1.00, 1083.4, 100.8)">r</text><text xml:space="preserve" font-family="Helvetica-Light,Helvetica" font-size="40.0" fill="#A6AAA8" transform="matrix(1.00, 0.00, -0.00, -1.00, 1096.0, 100.8)">d</text><text xml:space="preserve" font-family="Helvetica-Light,Helvetica" font-size="40.0" fill="#A6AAA8" transform="matrix(1.00, 0.00, -0.00, -1.00, 1120.5, 100.8)">i</text><text xml:space="preserve" font-family="Helvetica-Light,Helvetica" font-size="40.0" fill="#A6AAA8" transform="matrix(1.00, 0.00, -0.00, -1.00, 1129.3, 100.8)">n</text><text xml:space="preserve" font-family="Helvetica-Light,Helvetica" font-size="40.0" fill="#A6AAA8" transform="matrix(1.00, 0.00, -0.00, -1.00, 1151.6, 100.8)">g</text><text xml:space="preserve" font-family="Helvetica-Light,Helvetica" font-size="40.0" fill="#A6AAA8" transform="matrix(1.00, 0.00, -0.00, -1.00, 1176.0, 100.8)">-</text><text xml:space="preserve" font-family="Helvetica-Light,Helvetica" font-size="40.0" fill="#A6AAA8" transform="matrix(1.00, 0.00, -0.00, -1.00, 1189.3, 100.8)">C</text><text xml:space="preserve" font-family="Helvetica-Light,Helvetica" font-size="40.0" fill="#A6AAA8" transform="matrix(1.00, 0.00, -0.00, -1.00, 1218.2, 100.8)">h</text><text xml:space="preserve" font-family="Helvetica-Light,Helvetica" font-size="40.0" fill="#A6AAA8" transform="matrix(1.00, 0.00, -0.00, -1.00, 1240.5, 100.8)">a</text><text xml:space="preserve" font-family="Helvetica-Light,Helvetica" font-size="40.0" fill="#A6AAA8" transform="matrix(1.00, 0.00, -0.00, -1.00, 1262.7, 100.8)">n</text><text xml:space="preserve" font-family="Helvetica-Light,Helvetica" font-size="40.0" fill="#A6AAA8" transform="matrix(1.00, 0.00, -0.00, -1.00, 1284.9, 100.8)">g</text><text xml:space="preserve" font-family="Helvetica-Light,Helvetica" font-size="40.0" fill="#A6AAA8" transform="matrix(1.00, 0.00, -0.00, -1.00, 1309.4, 100.8)">e</text><text xml:space="preserve" font-family="Helvetica-Light,Helvetica" font-size="40.0" fill="#A6AAA8" transform="matrix(1.00, 0.00, -0.00, -1.00, 1331.6, 100.8)">s</text><text xml:space="preserve" font-family="Helvetica-Light,Helvetica" font-size="40.0" fill="#A6AAA8" transform="matrix(1.00, 0.00, -0.00, -1.00, 1351.6, 100.8)">-</text><text xml:space="preserve" font-family="Helvetica-Light,Helvetica" font-size="40.0" fill="#A6AAA8" transform="matrix(1.00, 0.00, -0.00, -1.00, 1364.9, 100.8)">t</text><text xml:space="preserve" font-family="Helvetica-Light,Helvetica" font-size="40.0" fill="#A6AAA8" transform="matrix(1.00, 0.00, -0.00, -1.00, 1376.1, 100.8)">o</text><text xml:space="preserve" font-family="Helvetica-Light,Helvetica" font-size="40.0" fill="#A6AAA8" transform="matrix(1.00, 0.00, -0.00, -1.00, 1398.3, 100.8)">-</text><text xml:space="preserve" font-family="Helvetica-Light,Helvetica" font-size="40.0" fill="#A6AAA8" transform="matrix(1.00, 0.00, -0.00, -1.00, 1411.6, 100.8)">t</text><text xml:space="preserve" font-family="Helvetica-Light,Helvetica" font-size="40.0" fill="#A6AAA8" transform="matrix(1.00, 0.00, -0.00, -1.00, 1422.7, 100.8)">h</text><text xml:space="preserve" font-family="Helvetica-Light,Helvetica" font-size="40.0" fill="#A6AAA8" transform="matrix(1.00, 0.00, -0.00, -1.00, 1445.0, 100.8)">e</text><text xml:space="preserve" font-family="Helvetica-Light,Helvetica" font-size="40.0" fill="#A6AAA8" transform="matrix(1.00, 0.00, -0.00, -1.00, 1467.2, 100.8)">-</text><text xml:space="preserve" font-family="Helvetica-Light,Helvetica" font-size="40.0" fill="#A6AAA8" transform="matrix(1.00, 0.00, -0.00, -1.00, 1480.5, 100.8)">R</text><text xml:space="preserve" font-family="Helvetica-Light,Helvetica" font-size="40.0" fill="#A6AAA8" transform="matrix(1.00, 0.00, -0.00, -1.00, 1507.2, 100.8)">e</text><text xml:space="preserve" font-family="Helvetica-Light,Helvetica" font-size="40.0" fill="#A6AAA8" transform="matrix(1.00, 0.00, -0.00, -1.00, 1529.5, 100.8)">p</text><text xml:space="preserve" font-family="Helvetica-Light,Helvetica" font-size="40.0" fill="#A6AAA8" transform="matrix(1.00, 0.00, -0.00, -1.00, 1553.9, 100.8)">o</text><text xml:space="preserve" font-family="Helvetica-Light,Helvetica" font-size="40.0" fill="#A6AAA8" transform="matrix(1.00, 0.00, -0.00, -1.00, 1576.1, 100.8)">s</text><text xml:space="preserve" font-family="Helvetica-Light,Helvetica" font-size="40.0" fill="#A6AAA8" transform="matrix(1.00, 0.00, -0.00, -1.00, 1596.1, 100.8)">i</text><text xml:space="preserve" font-family="Helvetica-Light,Helvetica" font-size="40.0" fill="#A6AAA8" transform="matrix(1.00, 0.00, -0.00, -1.00, 1605.0, 100.8)">t</text><text xml:space="preserve" font-family="Helvetica-Light,Helvetica" font-size="40.0" fill="#A6AAA8" transform="matrix(1.00, 0.00, -0.00, -1.00, 1616.1, 100.8)">o</text><text xml:space="preserve" font-family="Helvetica-Light,Helvetica" font-size="40.0" fill="#A6AAA8" transform="matrix(1.00, 0.00, -0.00, -1.00, 1638.4, 100.8)">r</text><text xml:space="preserve" font-family="Helvetica-Light,Helvetica" font-size="40.0" fill="#A6AAA8" transform="matrix(1.00, 0.00, -0.00, -1.00, 1652.4, 100.8)">y</text><g><clipPath id="clip0x600000eb72e0"><path d="M 246.6 95.8 L 1672.4 95.8 L 1672.4 99.8 L 246.6 99.8 Z M 246.6 95.8 "></path></clipPath><g clip-path="url(#clip0x600000eb72e0)"><path d="M 4.5 45.8 L 1429.3 45.8 " fill="none" stroke="#A6AAA8" stroke-width="2.00" transform="matrix(1.00, 0.00, 0.00, -1.00, 243.1, 143.6)"></path></g></g></g></svg>