<?xml version="1.0" encoding="UTF-8" standalone="no"?><svg xmlns="http://www.w3.org/2000/svg" xmlns:xlink="http://www.w3.org/1999/xlink" clip-rule="evenodd" stroke-miterlimit="10" viewBox="0 0 1526 52"><desc>SVG generated by Keynote</desc><defs></defs><g transform="matrix(1.00, 0.00, -0.00, -1.00, 0.0, 52.0)"><text xml:space="preserve" font-family="Helvetica-Light,Helvetica" font-size="39.0" fill="#FEFFFF" transform="matrix(1.00, 0.00, -0.00, -1.00, 0.0, 16.5)">•</text><text xml:space="preserve" font-family="Helvetica-Light,Helvetica" font-size="52.0" fill="#FEFFFF" transform="matrix(1.00, 0.00, -0.00, -1.00, 50.0, 12.0)">C</text><text xml:space="preserve" font-family="Helvetica-Light,Helvetica" font-size="52.0" fill="#FEFFFF" transform="matrix(1.00, 0.00, -0.00, -1.00, 87.5, 12.0)">o</text><text xml:space="preserve" font-family="Helvetica-Light,Helvetica" font-size="52.0" fill="#FEFFFF" transform="matrix(1.00, 0.00, -0.00, -1.00, 116.5, 12.0)">m</text><text xml:space="preserve" font-family="Helvetica-Light,Helvetica" font-size="52.0" fill="#FEFFFF" transform="matrix(1.00, 0.00, -0.00, -1.00, 159.8, 12.0)">b</text><text xml:space="preserve" font-family="Helvetica-Light,Helvetica" font-size="52.0" fill="#FEFFFF" transform="matrix(1.00, 0.00, -0.00, -1.00, 191.5, 12.0)">i</text><text xml:space="preserve" font-family="Helvetica-Light,Helvetica" font-size="52.0" fill="#FEFFFF" transform="matrix(1.00, 0.00, -0.00, -1.00, 203.1, 12.0)">n</text><text xml:space="preserve" font-family="Helvetica-Light,Helvetica" font-size="52.0" fill="#FEFFFF" transform="matrix(1.00, 0.00, -0.00, -1.00, 232.0, 12.0)">e</text><text xml:space="preserve" font-family="Helvetica-Light,Helvetica" font-size="52.0" fill="#FEFFFF" transform="matrix(1.00, 0.00, -0.00, -1.00, 260.9, 12.0)"> </text><text xml:space="preserve" font-family="Helvetica-Light,Helvetica" font-size="52.0" fill="#FEFFFF" transform="matrix(1.00, 0.00, -0.00, -1.00, 275.4, 12.0)">w</text><text xml:space="preserve" font-family="Helvetica-Light,Helvetica" font-size="52.0" fill="#FEFFFF" transform="matrix(1.00, 0.00, -0.00, -1.00, 312.9, 12.0)">i</text><text xml:space="preserve" font-family="Helvetica-Light,Helvetica" font-size="52.0" fill="#FEFFFF" transform="matrix(1.00, 0.00, -0.00, -1.00, 324.5, 12.0)">t</text><text xml:space="preserve" font-family="Helvetica-Light,Helvetica" font-size="52.0" fill="#FEFFFF" transform="matrix(1.00, 0.00, -0.00, -1.00, 338.9, 12.0)">h</text><text xml:space="preserve" font-family="Helvetica-Light,Helvetica" font-size="52.0" fill="#FEFFFF" transform="matrix(1.00, 0.00, -0.00, -1.00, 367.8, 12.0)"> </text><text xml:space="preserve" font-family="Helvetica-Light,Helvetica" font-size="52.0" fill="#FEFFFF" transform="matrix(1.00, 0.00, -0.00, -1.00, 382.3, 12.0)">a</text><text xml:space="preserve" font-family="Helvetica-Light,Helvetica" font-size="52.0" fill="#FEFFFF" transform="matrix(1.00, 0.00, -0.00, -1.00, 411.2, 12.0)"> </text><text xml:space="preserve" font-family="Helvetica-Light,Helvetica" font-size="52.0" fill="#FEFFFF" transform="matrix(1.00, 0.00, -0.00, -1.00, 425.6, 12.0)">c</text><text xml:space="preserve" font-family="Helvetica-Light,Helvetica" font-size="52.0" fill="#FEFFFF" transform="matrix(1.00, 0.00, -0.00, -1.00, 454.6, 12.0)">o</text><text xml:space="preserve" font-family="Helvetica-Light,Helvetica" font-size="52.0" fill="#FEFFFF" transform="matrix(1.00, 0.00, -0.00, -1.00, 483.5, 12.0)">m</text><text xml:space="preserve" font-family="Helvetica-Light,Helvetica" font-size="52.0" fill="#FEFFFF" transform="matrix(1.00, 0.00, -0.00, -1.00, 526.8, 12.0)">m</text><text xml:space="preserve" font-family="Helvetica-Light,Helvetica" font-size="52.0" fill="#FEFFFF" transform="matrix(1.00, 0.00, -0.00, -1.00, 570.1, 12.0)">i</text><text xml:space="preserve" font-family="Helvetica-Light,Helvetica" font-size="52.0" fill="#FEFFFF" transform="matrix(1.00, 0.00, -0.00, -1.00, 581.6, 12.0)">t</text><text xml:space="preserve" font-family="Helvetica-Light,Helvetica" font-size="52.0" fill="#FEFFFF" transform="matrix(1.00, 0.00, -0.00, -1.00, 596.1, 12.0)">,</text><text xml:space="preserve" font-family="Helvetica-Light,Helvetica" font-size="52.0" fill="#FEFFFF" transform="matrix(1.00, 0.00, -0.00, -1.00, 610.6, 12.0)"> </text><text xml:space="preserve" font-family="Helvetica-Light,Helvetica" font-size="52.0" fill="#FEFFFF" transform="matrix(1.00, 0.00, -0.00, -1.00, 625.0, 12.0)">w</text><text xml:space="preserve" font-family="Helvetica-Light,Helvetica" font-size="52.0" fill="#FEFFFF" transform="matrix(1.00, 0.00, -0.00, -1.00, 662.6, 12.0)">e</text><text xml:space="preserve" font-family="Helvetica-Light,Helvetica" font-size="52.0" fill="#FEFFFF" transform="matrix(1.00, 0.00, -0.00, -1.00, 691.5, 12.0)"> </text><text xml:space="preserve" font-family="Helvetica-Light,Helvetica" font-size="52.0" fill="#FEFFFF" transform="matrix(1.00, 0.00, -0.00, -1.00, 705.9, 12.0)">c</text><text xml:space="preserve" font-family="Helvetica-Light,Helvetica" font-size="52.0" fill="#FEFFFF" transform="matrix(1.00, 0.00, -0.00, -1.00, 734.8, 12.0)">a</text><text xml:space="preserve" font-family="Helvetica-Light,Helvetica" font-size="52.0" fill="#FEFFFF" transform="matrix(1.00, 0.00, -0.00, -1.00, 763.8, 12.0)">n</text><text xml:space="preserve" font-family="Helvetica-Light,Helvetica" font-size="52.0" fill="#FEFFFF" transform="matrix(1.00, 0.00, -0.00, -1.00, 792.7, 12.0)"> </text><text xml:space="preserve" font-family="Helvetica-Light,Helvetica" font-size="52.0" fill="#FEFFFF" transform="matrix(1.00, 0.00, -0.00, -1.00, 807.1, 12.0)">c</text><text xml:space="preserve" font-family="Helvetica-Light,Helvetica" font-size="52.0" fill="#FEFFFF" transform="matrix(1.00, 0.00, -0.00, -1.00, 836.0, 12.0)">a</text><text xml:space="preserve" font-family="Helvetica-Light,Helvetica" font-size="52.0" fill="#FEFFFF" transform="matrix(1.00, 0.00, -0.00, -1.00, 864.9, 12.0)">n</text><text xml:space="preserve" font-family="Helvetica-Light,Helvetica" font-size="52.0" fill="#FEFFFF" transform="matrix(1.00, 0.00, -0.00, -1.00, 893.9, 12.0)"> </text><text xml:space="preserve" font-family="Helvetica-Light,Helvetica" font-size="52.0" fill="#FEFFFF" transform="matrix(1.00, 0.00, -0.00, -1.00, 908.3, 12.0)">t</text><text xml:space="preserve" font-family="Helvetica-Light,Helvetica" font-size="52.0" fill="#FEFFFF" transform="matrix(1.00, 0.00, -0.00, -1.00, 922.8, 12.0)">e</text><text xml:space="preserve" font-family="Helvetica-Light,Helvetica" font-size="52.0" fill="#FEFFFF" transform="matrix(1.00, 0.00, -0.00, -1.00, 951.7, 12.0)">m</text><text xml:space="preserve" font-family="Helvetica-Light,Helvetica" font-size="52.0" fill="#FEFFFF" transform="matrix(1.00, 0.00, -0.00, -1.00, 995.0, 12.0)">p</text><text xml:space="preserve" font-family="Helvetica-Light,Helvetica" font-size="52.0" fill="#FEFFFF" transform="matrix(1.00, 0.00, -0.00, -1.00, 1026.8, 12.0)">o</text><text xml:space="preserve" font-family="Helvetica-Light,Helvetica" font-size="52.0" fill="#FEFFFF" transform="matrix(1.00, 0.00, -0.00, -1.00, 1055.7, 12.0)">r</text><text xml:space="preserve" font-family="Helvetica-Light,Helvetica" font-size="52.0" fill="#FEFFFF" transform="matrix(1.00, 0.00, -0.00, -1.00, 1073.0, 12.0)">a</text><text xml:space="preserve" font-family="Helvetica-Light,Helvetica" font-size="52.0" fill="#FEFFFF" transform="matrix(1.00, 0.00, -0.00, -1.00, 1101.9, 12.0)">r</text><text xml:space="preserve" font-family="Helvetica-Light,Helvetica" font-size="52.0" fill="#FEFFFF" transform="matrix(1.00, 0.00, -0.00, -1.00, 1120.2, 12.0)">y</text><text xml:space="preserve" font-family="Helvetica-Light,Helvetica" font-size="52.0" fill="#FEFFFF" transform="matrix(1.00, 0.00, -0.00, -1.00, 1146.2, 12.0)"> </text><text xml:space="preserve" font-family="Helvetica-Light,Helvetica" font-size="52.0" fill="#FEFFFF" transform="matrix(1.00, 0.00, -0.00, -1.00, 1160.6, 12.0)">“</text><text xml:space="preserve" font-family="Helvetica-Light,Helvetica" font-size="52.0" fill="#FEFFFF" transform="matrix(1.00, 0.00, -0.00, -1.00, 1180.8, 12.0)">s</text><text xml:space="preserve" font-family="Helvetica-Light,Helvetica" font-size="52.0" fill="#FEFFFF" transform="matrix(1.00, 0.00, -0.00, -1.00, 1206.8, 12.0)">a</text><text xml:space="preserve" font-family="Helvetica-Light,Helvetica" font-size="52.0" fill="#FEFFFF" transform="matrix(1.00, 0.00, -0.00, -1.00, 1235.8, 12.0)">v</text><text xml:space="preserve" font-family="Helvetica-Light,Helvetica" font-size="52.0" fill="#FEFFFF" transform="matrix(1.00, 0.00, -0.00, -1.00, 1261.8, 12.0)">e</text><text xml:space="preserve" font-family="Helvetica-Light,Helvetica" font-size="52.0" fill="#FEFFFF" transform="matrix(1.00, 0.00, -0.00, -1.00, 1290.7, 12.0)">”</text><text xml:space="preserve" font-family="Helvetica-Light,Helvetica" font-size="52.0" fill="#FEFFFF" transform="matrix(1.00, 0.00, -0.00, -1.00, 1310.9, 12.0)"> </text><text xml:space="preserve" font-family="Helvetica-Light,Helvetica" font-size="52.0" fill="#FEFFFF" transform="matrix(1.00, 0.00, -0.00, -1.00, 1325.4, 12.0)">o</text><text xml:space="preserve" font-family="Helvetica-Light,Helvetica" font-size="52.0" fill="#FEFFFF" transform="matrix(1.00, 0.00, -0.00, -1.00, 1354.3, 12.0)">u</text><text xml:space="preserve" font-family="Helvetica-Light,Helvetica" font-size="52.0" fill="#FEFFFF" transform="matrix(1.00, 0.00, -0.00, -1.00, 1383.2, 12.0)">r</text><text xml:space="preserve" font-family="Helvetica-Light,Helvetica" font-size="52.0" fill="#FEFFFF" transform="matrix(1.00, 0.00, -0.00, -1.00, 1400.5, 12.0)"> </text><text xml:space="preserve" font-family="Helvetica-Light,Helvetica" font-size="52.0" fill="#FEFFFF" transform="matrix(1.00, 0.00, -0.00, -1.00, 1414.9, 12.0)">w</text><text xml:space="preserve" font-family="Helvetica-Light,Helvetica" font-size="52.0" fill="#FEFFFF" transform="matrix(1.00, 0.00, -0.00, -1.00, 1452.5, 12.0)">o</text><text xml:space="preserve" font-family="Helvetica-Light,Helvetica" font-size="52.0" fill="#FEFFFF" transform="matrix(1.00, 0.00, -0.00, -1.00, 1481.4, 12.0)">r</text><text xml:space="preserve" font-family="Helvetica-Light,Helvetica" font-size="52.0" fill="#FEFFFF" transform="matrix(1.00, 0.00, -0.00, -1.00, 1498.7, 12.0)">k</text></g></svg>