<?xml version="1.0" encoding="UTF-8" standalone="no"?><svg xmlns="http://www.w3.org/2000/svg" xmlns:xlink="http://www.w3.org/1999/xlink" clip-rule="evenodd" stroke-miterlimit="10" viewBox="0 0 134 115"><desc>SVG generated by Keynote</desc><defs></defs><g transform="matrix(1.00, 0.00, -0.00, -1.00, 0.0, 115.0)"><g><clipPath id="clip0x6000014aa440"><path d="M 62.8 0.4 L 62.8 87.7 L 70.8 87.7 L 70.8 0.4 Z M 62.8 0.4 "></path></clipPath><g clip-path="url(#clip0x6000014aa440)"><path d="M -0.4 0.2 L 85.6 0.2 " fill="none" stroke="#FEFFFE" stroke-width="6.00" transform="matrix(0.00, 1.00, 1.00, 0.00, 66.8, 1.4)"></path></g></g><g><clipPath id="clip0x6000014aa8c0"><path d="M 0.4 44.0 L 133.2 44.0 L 133.2 114.0 L 0.4 114.0 Z M 0.4 44.0 "></path></clipPath><g clip-path="url(#clip0x6000014aa8c0)"><path d="M 1.0 113.0 L 132.0 113.0 L 132.0 45.0 L 1.0 45.0 Z M 1.4 113.0 " fill="#7ADA45"></path></g></g><g><clipPath id="clip0x6000014aab00"><path d="M -3.6 45.0 L 137.2 45.0 L 137.2 113.0 L -3.6 113.0 Z M -3.6 45.0 "></path></clipPath><g clip-path="url(#clip0x6000014aab00)"><text xml:space="preserve" font-family="Helvetica-Light,Helvetica" font-size="36.0" fill="#FEFFFF" transform="matrix(1.00, 0.00, -0.00, -1.00, 17.8, 65.3)">H</text><text xml:space="preserve" font-family="Helvetica-Light,Helvetica" font-size="36.0" fill="#FEFFFF" transform="matrix(1.00, 0.00, -0.00, -1.00, 43.8, 65.3)">E</text><text xml:space="preserve" font-family="Helvetica-Light,Helvetica" font-size="36.0" fill="#FEFFFF" transform="matrix(1.00, 0.00, -0.00, -1.00, 65.8, 65.3)">A</text><text xml:space="preserve" font-family="Helvetica-Light,Helvetica" font-size="36.0" fill="#FEFFFF" transform="matrix(1.00, 0.00, -0.00, -1.00, 89.8, 65.3)">D</text></g></g></g></svg>