<?xml version="1.0" encoding="UTF-8" standalone="no"?><svg xmlns="http://www.w3.org/2000/svg" xmlns:xlink="http://www.w3.org/1999/xlink" clip-rule="evenodd" stroke-miterlimit="10" viewBox="0 0 978 74"><desc>SVG generated by Keynote</desc><defs></defs><g transform="matrix(1.00, 0.00, -0.00, -1.00, 0.0, 74.0)"><path d="M 2.0 72.0 L 976.0 72.0 L 976.0 1.0 L 2.0 1.0 Z M 1.8 72.2 " fill="#52575F"></path><g><clipPath id="clip0x6000014af6c0"><path d="M -9.8 -14.4 L 987.8 -14.4 L 987.8 83.8 L -9.8 83.8 Z M -9.8 -14.4 "></path></clipPath><g clip-path="url(#clip0x6000014af6c0)"><text xml:space="preserve" font-family="Monaco,Monaco" font-size="50.0" fill="#FEFFFF" transform="matrix(1.00, 0.00, -0.00, -1.00, 23.9, 17.9)">g</text><text xml:space="preserve" font-family="Monaco,Monaco" font-size="50.0" fill="#FEFFFF" transform="matrix(1.00, 0.00, -0.00, -1.00, 53.9, 17.9)">i</text><text xml:space="preserve" font-family="Monaco,Monaco" font-size="50.0" fill="#FEFFFF" transform="matrix(1.00, 0.00, -0.00, -1.00, 83.9, 17.9)">t</text><text xml:space="preserve" font-family="Monaco,Monaco" font-size="50.0" fill="#FEFFFF" transform="matrix(1.00, 0.00, -0.00, -1.00, 114.0, 17.9)"> </text><text xml:space="preserve" font-family="Monaco,Monaco" font-size="50.0" fill="#FEFFFF" transform="matrix(1.00, 0.00, -0.00, -1.00, 144.0, 17.9)">r</text><text xml:space="preserve" font-family="Monaco,Monaco" font-size="50.0" fill="#FEFFFF" transform="matrix(1.00, 0.00, -0.00, -1.00, 174.0, 17.9)">e</text><text xml:space="preserve" font-family="Monaco,Monaco" font-size="50.0" fill="#FEFFFF" transform="matrix(1.00, 0.00, -0.00, -1.00, 204.0, 17.9)">s</text><text xml:space="preserve" font-family="Monaco,Monaco" font-size="50.0" fill="#FEFFFF" transform="matrix(1.00, 0.00, -0.00, -1.00, 234.0, 17.9)">e</text><text xml:space="preserve" font-family="Monaco,Monaco" font-size="50.0" fill="#FEFFFF" transform="matrix(1.00, 0.00, -0.00, -1.00, 264.0, 17.9)">t</text><text xml:space="preserve" font-family="Monaco,Monaco" font-size="50.0" fill="#FEFFFF" transform="matrix(1.00, 0.00, -0.00, -1.00, 294.0, 17.9)"> </text><text xml:space="preserve" font-family="Monaco,Monaco" font-size="50.0" fill="#FEFFFF" transform="matrix(1.00, 0.00, -0.00, -1.00, 324.0, 17.9)">{</text><text xml:space="preserve" font-family="Monaco,Monaco" font-size="50.0" fill="#FEFFFF" transform="matrix(1.00, 0.00, -0.00, -1.00, 354.0, 17.9)">h</text><text xml:space="preserve" font-family="Monaco,Monaco" font-size="50.0" fill="#FEFFFF" transform="matrix(1.00, 0.00, -0.00, -1.00, 384.0, 17.9)">a</text><text xml:space="preserve" font-family="Monaco,Monaco" font-size="50.0" fill="#FEFFFF" transform="matrix(1.00, 0.00, -0.00, -1.00, 414.1, 17.9)">s</text><text xml:space="preserve" font-family="Monaco,Monaco" font-size="50.0" fill="#FEFFFF" transform="matrix(1.00, 0.00, -0.00, -1.00, 444.1, 17.9)">h</text><text xml:space="preserve" font-family="Monaco,Monaco" font-size="50.0" fill="#FEFFFF" transform="matrix(1.00, 0.00, -0.00, -1.00, 474.1, 17.9)"> </text><text xml:space="preserve" font-family="Monaco,Monaco" font-size="50.0" fill="#FEFFFF" transform="matrix(1.00, 0.00, -0.00, -1.00, 504.1, 17.9)">o</text><text xml:space="preserve" font-family="Monaco,Monaco" font-size="50.0" fill="#FEFFFF" transform="matrix(1.00, 0.00, -0.00, -1.00, 534.1, 17.9)">f</text><text xml:space="preserve" font-family="Monaco,Monaco" font-size="50.0" fill="#FEFFFF" transform="matrix(1.00, 0.00, -0.00, -1.00, 564.1, 17.9)"> </text><text xml:space="preserve" font-family="Monaco,Monaco" font-size="50.0" fill="#FEFFFF" transform="matrix(1.00, 0.00, -0.00, -1.00, 594.1, 17.9)">o</text><text xml:space="preserve" font-family="Monaco,Monaco" font-size="50.0" fill="#FEFFFF" transform="matrix(1.00, 0.00, -0.00, -1.00, 624.1, 17.9)">l</text><text xml:space="preserve" font-family="Monaco,Monaco" font-size="50.0" fill="#FEFFFF" transform="matrix(1.00, 0.00, -0.00, -1.00, 654.1, 17.9)">d</text><text xml:space="preserve" font-family="Monaco,Monaco" font-size="50.0" fill="#FEFFFF" transform="matrix(1.00, 0.00, -0.00, -1.00, 684.1, 17.9)">}</text><text xml:space="preserve" font-family="Monaco,Monaco" font-size="50.0" fill="#FEFFFF" transform="matrix(1.00, 0.00, -0.00, -1.00, 714.2, 17.9)"> </text><text xml:space="preserve" font-family="Monaco,Monaco" font-size="50.0" fill="#FEFFFF" transform="matrix(1.00, 0.00, -0.00, -1.00, 744.2, 17.9)">—</text><text xml:space="preserve" font-family="Monaco,Monaco" font-size="50.0" fill="#FEFFFF" transform="matrix(1.00, 0.00, -0.00, -1.00, 774.2, 17.9)">-</text><text xml:space="preserve" font-family="Monaco,Monaco" font-size="50.0" fill="#FEFFFF" transform="matrix(1.00, 0.00, -0.00, -1.00, 804.2, 17.9)">m</text><text xml:space="preserve" font-family="Monaco,Monaco" font-size="50.0" fill="#FEFFFF" transform="matrix(1.00, 0.00, -0.00, -1.00, 834.2, 17.9)">i</text><text xml:space="preserve" font-family="Monaco,Monaco" font-size="50.0" fill="#FEFFFF" transform="matrix(1.00, 0.00, -0.00, -1.00, 864.2, 17.9)">x</text><text xml:space="preserve" font-family="Monaco,Monaco" font-size="50.0" fill="#FEFFFF" transform="matrix(1.00, 0.00, -0.00, -1.00, 894.2, 17.9)">e</text><text xml:space="preserve" font-family="Monaco,Monaco" font-size="50.0" fill="#FEFFFF" transform="matrix(1.00, 0.00, -0.00, -1.00, 924.2, 17.9)">d</text></g></g></g></svg>