<?xml version="1.0" encoding="UTF-8" standalone="no"?><svg xmlns="http://www.w3.org/2000/svg" xmlns:xlink="http://www.w3.org/1999/xlink" clip-rule="evenodd" stroke-miterlimit="10" viewBox="0 0 1920 1080"><desc>SVG generated by Keynote</desc><defs></defs><g transform="matrix(1.00, 0.00, -0.00, -1.00, 0.0, 1080.0)"><path d="M 0.0 1080.0 L 1920.0 1080.0 L 1920.0 0.0 L 0.0 0.0 Z M 0.0 1080.0 " fill="#000000"></path><text xml:space="preserve" font-family="Helvetica-Light,Helvetica" font-size="112.0" fill="#FEFFFF" transform="matrix(1.00, 0.00, -0.00, -1.00, 623.8, 562.8)">W</text><text xml:space="preserve" font-family="Helvetica-Light,Helvetica" font-size="112.0" fill="#FEFFFF" transform="matrix(1.00, 0.00, -0.00, -1.00, 723.4, 562.8)">h</text><text xml:space="preserve" font-family="Helvetica-Light,Helvetica" font-size="112.0" fill="#FEFFFF" transform="matrix(1.00, 0.00, -0.00, -1.00, 785.7, 562.8)">a</text><text xml:space="preserve" font-family="Helvetica-Light,Helvetica" font-size="112.0" fill="#FEFFFF" transform="matrix(1.00, 0.00, -0.00, -1.00, 847.9, 562.8)">t</text><text xml:space="preserve" font-family="Helvetica-Light,Helvetica" font-size="112.0" fill="#FEFFFF" transform="matrix(1.00, 0.00, -0.00, -1.00, 879.1, 562.8)"> </text><text xml:space="preserve" font-family="Helvetica-Light,Helvetica" font-size="112.0" fill="#FEFFFF" transform="matrix(1.00, 0.00, -0.00, -1.00, 910.2, 562.8)">t</text><text xml:space="preserve" font-family="Helvetica-Light,Helvetica" font-size="112.0" fill="#FEFFFF" transform="matrix(1.00, 0.00, -0.00, -1.00, 941.4, 562.8)">h</text><text xml:space="preserve" font-family="Helvetica-Light,Helvetica" font-size="112.0" fill="#FEFFFF" transform="matrix(1.00, 0.00, -0.00, -1.00, 1003.6, 562.8)">e</text><text xml:space="preserve" font-family="Helvetica-Light,Helvetica" font-size="112.0" fill="#FEFFFF" transform="matrix(1.00, 0.00, -0.00, -1.00, 1065.9, 562.8)"> </text><text xml:space="preserve" font-family="Helvetica-Light,Helvetica" font-size="112.0" fill="#FEFFFF" transform="matrix(1.00, 0.00, -0.00, -1.00, 1097.0, 562.8)">G</text><text xml:space="preserve" font-family="Helvetica-Light,Helvetica" font-size="112.0" fill="#FEFFFF" transform="matrix(1.00, 0.00, -0.00, -1.00, 1184.2, 562.8)">i</text><text xml:space="preserve" font-family="Helvetica-Light,Helvetica" font-size="112.0" fill="#FEFFFF" transform="matrix(1.00, 0.00, -0.00, -1.00, 1209.0, 562.8)">t</text><text xml:space="preserve" font-family="Helvetica-Light,Helvetica" font-size="112.0" fill="#FEFFFF" transform="matrix(1.00, 0.00, -0.00, -1.00, 1240.2, 562.8)">?</text><text xml:space="preserve" font-family="Helvetica-Light,Helvetica" font-size="44.0" fill="#FEFFFF" transform="matrix(1.00, 0.00, -0.00, -1.00, 753.4, 476.1)">I</text><text xml:space="preserve" font-family="Helvetica-Light,Helvetica" font-size="44.0" fill="#FEFFFF" transform="matrix(1.00, 0.00, -0.00, -1.00, 765.6, 476.1)">t</text><text xml:space="preserve" font-family="Helvetica-Light,Helvetica" font-size="44.0" fill="#FEFFFF" transform="matrix(1.00, 0.00, -0.00, -1.00, 777.8, 476.1)">’</text><text xml:space="preserve" font-family="Helvetica-Light,Helvetica" font-size="44.0" fill="#FEFFFF" transform="matrix(1.00, 0.00, -0.00, -1.00, 784.3, 476.1)">s</text><text xml:space="preserve" font-family="Helvetica-Light,Helvetica" font-size="44.0" fill="#FEFFFF" transform="matrix(1.00, 0.00, -0.00, -1.00, 806.3, 476.1)"> </text><text xml:space="preserve" font-family="Helvetica-Light,Helvetica" font-size="44.0" fill="#FEFFFF" transform="matrix(1.00, 0.00, -0.00, -1.00, 818.6, 476.1)">n</text><text xml:space="preserve" font-family="Helvetica-Light,Helvetica" font-size="44.0" fill="#FEFFFF" transform="matrix(1.00, 0.00, -0.00, -1.00, 843.0, 476.1)">o</text><text xml:space="preserve" font-family="Helvetica-Light,Helvetica" font-size="44.0" fill="#FEFFFF" transform="matrix(1.00, 0.00, -0.00, -1.00, 867.5, 476.1)">t</text><text xml:space="preserve" font-family="Helvetica-Light,Helvetica" font-size="44.0" fill="#FEFFFF" transform="matrix(1.00, 0.00, -0.00, -1.00, 879.7, 476.1)"> </text><text xml:space="preserve" font-family="Helvetica-Light,Helvetica" font-size="44.0" fill="#FEFFFF" transform="matrix(1.00, 0.00, -0.00, -1.00, 892.0, 476.1)">m</text><text xml:space="preserve" font-family="Helvetica-Light,Helvetica" font-size="44.0" fill="#FEFFFF" transform="matrix(1.00, 0.00, -0.00, -1.00, 928.6, 476.1)">a</text><text xml:space="preserve" font-family="Helvetica-Light,Helvetica" font-size="44.0" fill="#FEFFFF" transform="matrix(1.00, 0.00, -0.00, -1.00, 953.1, 476.1)">g</text><text xml:space="preserve" font-family="Helvetica-Light,Helvetica" font-size="44.0" fill="#FEFFFF" transform="matrix(1.00, 0.00, -0.00, -1.00, 980.0, 476.1)">i</text><text xml:space="preserve" font-family="Helvetica-Light,Helvetica" font-size="44.0" fill="#FEFFFF" transform="matrix(1.00, 0.00, -0.00, -1.00, 989.7, 476.1)">c</text><text xml:space="preserve" font-family="Helvetica-Light,Helvetica" font-size="44.0" fill="#FEFFFF" transform="matrix(1.00, 0.00, -0.00, -1.00, 1014.2, 476.1)">.</text><text xml:space="preserve" font-family="Helvetica-Light,Helvetica" font-size="44.0" fill="#FEFFFF" transform="matrix(1.00, 0.00, -0.00, -1.00, 1026.4, 476.1)"> </text><text xml:space="preserve" font-family="Helvetica-Light,Helvetica" font-size="44.0" fill="#FEFFFF" transform="matrix(1.00, 0.00, -0.00, -1.00, 1038.7, 476.1)">R</text><text xml:space="preserve" font-family="Helvetica-Light,Helvetica" font-size="44.0" fill="#FEFFFF" transform="matrix(1.00, 0.00, -0.00, -1.00, 1068.0, 476.1)">e</text><text xml:space="preserve" font-family="Helvetica-Light,Helvetica" font-size="44.0" fill="#FEFFFF" transform="matrix(1.00, 0.00, -0.00, -1.00, 1092.5, 476.1)">a</text><text xml:space="preserve" font-family="Helvetica-Light,Helvetica" font-size="44.0" fill="#FEFFFF" transform="matrix(1.00, 0.00, -0.00, -1.00, 1116.9, 476.1)">l</text><text xml:space="preserve" font-family="Helvetica-Light,Helvetica" font-size="44.0" fill="#FEFFFF" transform="matrix(1.00, 0.00, -0.00, -1.00, 1126.7, 476.1)">l</text><text xml:space="preserve" font-family="Helvetica-Light,Helvetica" font-size="44.0" fill="#FEFFFF" transform="matrix(1.00, 0.00, -0.00, -1.00, 1136.5, 476.1)">y</text><text xml:space="preserve" font-family="Helvetica-Light,Helvetica" font-size="44.0" fill="#FEFFFF" transform="matrix(1.00, 0.00, -0.00, -1.00, 1154.4, 476.1)">.</text></g></svg>