<?xml version="1.0" encoding="UTF-8" standalone="no"?><svg xmlns="http://www.w3.org/2000/svg" xmlns:xlink="http://www.w3.org/1999/xlink" clip-rule="evenodd" stroke-miterlimit="10" viewBox="0 0 1054 74"><desc>SVG generated by Keynote</desc><defs></defs><g transform="matrix(1.00, 0.00, -0.00, -1.00, 0.0, 74.0)"><path d="M 1.0 72.0 L 1053.0 72.0 L 1053.0 1.0 L 1.0 1.0 Z M 1.2 72.3 " fill="#52575F"></path><g><clipPath id="clip0x6000018a8340"><path d="M -10.5 -14.3 L 1064.5 -14.3 L 1064.5 83.9 L -10.5 83.9 Z M -10.5 -14.3 "></path></clipPath><g clip-path="url(#clip0x6000018a8340)"><text xml:space="preserve" font-family="Monaco,Monaco" font-size="50.0" fill="#FEFFFF" transform="matrix(1.00, 0.00, -0.00, -1.00, 76.9, 18.0)">g</text><text xml:space="preserve" font-family="Monaco,Monaco" font-size="50.0" fill="#FEFFFF" transform="matrix(1.00, 0.00, -0.00, -1.00, 106.9, 18.0)">i</text><text xml:space="preserve" font-family="Monaco,Monaco" font-size="50.0" fill="#FEFFFF" transform="matrix(1.00, 0.00, -0.00, -1.00, 136.9, 18.0)">t</text><text xml:space="preserve" font-family="Monaco,Monaco" font-size="50.0" fill="#FEFFFF" transform="matrix(1.00, 0.00, -0.00, -1.00, 167.0, 18.0)"> </text><text xml:space="preserve" font-family="Monaco,Monaco" font-size="50.0" fill="#FEFFFF" transform="matrix(1.00, 0.00, -0.00, -1.00, 197.0, 18.0)">m</text><text xml:space="preserve" font-family="Monaco,Monaco" font-size="50.0" fill="#FEFFFF" transform="matrix(1.00, 0.00, -0.00, -1.00, 227.0, 18.0)">e</text><text xml:space="preserve" font-family="Monaco,Monaco" font-size="50.0" fill="#FEFFFF" transform="matrix(1.00, 0.00, -0.00, -1.00, 257.0, 18.0)">r</text><text xml:space="preserve" font-family="Monaco,Monaco" font-size="50.0" fill="#FEFFFF" transform="matrix(1.00, 0.00, -0.00, -1.00, 287.0, 18.0)">g</text><text xml:space="preserve" font-family="Monaco,Monaco" font-size="50.0" fill="#FEFFFF" transform="matrix(1.00, 0.00, -0.00, -1.00, 317.0, 18.0)">e</text><text xml:space="preserve" font-family="Monaco,Monaco" font-size="50.0" fill="#FEFFFF" transform="matrix(1.00, 0.00, -0.00, -1.00, 347.0, 18.0)"> </text><text xml:space="preserve" font-family="Monaco,Monaco" font-size="50.0" fill="#FEFFFF" transform="matrix(1.00, 0.00, -0.00, -1.00, 377.0, 18.0)">{</text><text xml:space="preserve" font-family="Monaco,Monaco" font-size="50.0" fill="#FEFFFF" transform="matrix(1.00, 0.00, -0.00, -1.00, 407.0, 18.0)">b</text><text xml:space="preserve" font-family="Monaco,Monaco" font-size="50.0" fill="#FEFFFF" transform="matrix(1.00, 0.00, -0.00, -1.00, 437.0, 18.0)">r</text><text xml:space="preserve" font-family="Monaco,Monaco" font-size="50.0" fill="#FEFFFF" transform="matrix(1.00, 0.00, -0.00, -1.00, 467.1, 18.0)">a</text><text xml:space="preserve" font-family="Monaco,Monaco" font-size="50.0" fill="#FEFFFF" transform="matrix(1.00, 0.00, -0.00, -1.00, 497.1, 18.0)">n</text><text xml:space="preserve" font-family="Monaco,Monaco" font-size="50.0" fill="#FEFFFF" transform="matrix(1.00, 0.00, -0.00, -1.00, 527.1, 18.0)">c</text><text xml:space="preserve" font-family="Monaco,Monaco" font-size="50.0" fill="#FEFFFF" transform="matrix(1.00, 0.00, -0.00, -1.00, 557.1, 18.0)">h</text><text xml:space="preserve" font-family="Monaco,Monaco" font-size="50.0" fill="#FEFFFF" transform="matrix(1.00, 0.00, -0.00, -1.00, 587.1, 18.0)"> </text><text xml:space="preserve" font-family="Monaco,Monaco" font-size="50.0" fill="#FEFFFF" transform="matrix(1.00, 0.00, -0.00, -1.00, 617.1, 18.0)">t</text><text xml:space="preserve" font-family="Monaco,Monaco" font-size="50.0" fill="#FEFFFF" transform="matrix(1.00, 0.00, -0.00, -1.00, 647.1, 18.0)">o</text><text xml:space="preserve" font-family="Monaco,Monaco" font-size="50.0" fill="#FEFFFF" transform="matrix(1.00, 0.00, -0.00, -1.00, 677.1, 18.0)"> </text><text xml:space="preserve" font-family="Monaco,Monaco" font-size="50.0" fill="#FEFFFF" transform="matrix(1.00, 0.00, -0.00, -1.00, 707.1, 18.0)">b</text><text xml:space="preserve" font-family="Monaco,Monaco" font-size="50.0" fill="#FEFFFF" transform="matrix(1.00, 0.00, -0.00, -1.00, 737.1, 18.0)">r</text><text xml:space="preserve" font-family="Monaco,Monaco" font-size="50.0" fill="#FEFFFF" transform="matrix(1.00, 0.00, -0.00, -1.00, 767.2, 18.0)">i</text><text xml:space="preserve" font-family="Monaco,Monaco" font-size="50.0" fill="#FEFFFF" transform="matrix(1.00, 0.00, -0.00, -1.00, 797.2, 18.0)">n</text><text xml:space="preserve" font-family="Monaco,Monaco" font-size="50.0" fill="#FEFFFF" transform="matrix(1.00, 0.00, -0.00, -1.00, 827.2, 18.0)">g</text><text xml:space="preserve" font-family="Monaco,Monaco" font-size="50.0" fill="#FEFFFF" transform="matrix(1.00, 0.00, -0.00, -1.00, 857.2, 18.0)"> </text><text xml:space="preserve" font-family="Monaco,Monaco" font-size="50.0" fill="#FEFFFF" transform="matrix(1.00, 0.00, -0.00, -1.00, 887.2, 18.0)">i</text><text xml:space="preserve" font-family="Monaco,Monaco" font-size="50.0" fill="#FEFFFF" transform="matrix(1.00, 0.00, -0.00, -1.00, 917.2, 18.0)">n</text><text xml:space="preserve" font-family="Monaco,Monaco" font-size="50.0" fill="#FEFFFF" transform="matrix(1.00, 0.00, -0.00, -1.00, 947.2, 18.0)">}</text></g></g></g></svg>